<svg id="_011-calendar" data-name="011-calendar" xmlns="http://www.w3.org/2000/svg" width="47.209" height="47.209" viewBox="0 0 47.209 47.209">
  <path id="Trazado_1569" data-name="Trazado 1569" d="M47.209,45.815V4.149a1.383,1.383,0,0,0-1.383-1.383H36.052V1.383a1.383,1.383,0,1,0-2.766,0V2.766h-8.3V1.383a1.383,1.383,0,0,0-2.766,0V2.766h-8.3V1.383a1.383,1.383,0,0,0-2.766,0V2.766H1.383A1.383,1.383,0,0,0,0,4.149V45.826a1.383,1.383,0,0,0,1.383,1.383H45.826a1.383,1.383,0,0,0,1.383-1.383ZM11.157,5.532V6.915a1.383,1.383,0,1,0,2.766,0V5.532h8.3V6.915a1.383,1.383,0,0,0,2.766,0V5.532h8.3V6.915a1.383,1.383,0,1,0,2.766,0V5.532h8.391v5.717H2.766V5.532ZM2.766,44.443V14.015H44.443V44.443Z" fill="#fff"/>
  <path id="Trazado_1570" data-name="Trazado 1570" d="M216.532,229.98v-1.621a4.149,4.149,0,0,0-1.383-8.061,1.383,1.383,0,1,1,.978-2.361,1.383,1.383,0,1,0,1.956-1.956,4.135,4.135,0,0,0-1.551-.98v-1.619a1.383,1.383,0,1,0-2.766,0V215a4.149,4.149,0,0,0,1.383,8.061,1.383,1.383,0,1,1-.978,2.361,1.383,1.383,0,1,0-1.956,1.956,4.134,4.134,0,0,0,1.551.98v1.619a1.383,1.383,0,1,0,2.766,0Z" transform="translate(-191.545 -192.453)" fill="#fff"/>
  <path id="Trazado_1571" data-name="Trazado 1571" d="M133.448,182A12.448,12.448,0,1,0,145.9,194.448,12.462,12.462,0,0,0,133.448,182Zm0,22.129a9.682,9.682,0,1,1,9.682-9.682A9.693,9.693,0,0,1,133.448,204.129Z" transform="translate(-109.843 -165.219)" fill="#fff"/>
</svg>
