<svg id="_004-ict" data-name="004-ict" xmlns="http://www.w3.org/2000/svg" width="88.5" height="98.788" viewBox="0 0 88.5 98.788">
  <path id="Trazado_1523" data-name="Trazado 1523" d="M119.111,59.342,111.633,46.5v-6.95C111.633,17.709,93.583,0,71.317,0S31,17.709,31,39.554a45.1,45.1,0,0,0,6.348,23.035l7.419,12.478V95.894a2.923,2.923,0,0,0,2.95,2.894h20.65V69.311l-13.6-15.844a8.955,8.955,0,0,1-3.117.558,8.684,8.684,0,1,1,8.85-8.683,8.5,8.5,0,0,1-1.222,4.394l9.088,10.588V28.444a8.851,8.851,0,1,1,5.9,0V50.677l9.088-10.588a8.5,8.5,0,0,1-1.222-4.394,8.852,8.852,0,1,1,8.85,8.683,8.957,8.957,0,0,1-3.117-.558l-13.6,15.844V98.788H85.083a2.923,2.923,0,0,0,2.95-2.894V86.825h14.75a8.777,8.777,0,0,0,8.85-8.683V75.249h-7.867a2.895,2.895,0,1,1,0-5.788h7.867V66.425l6.235-3.059A2.868,2.868,0,0,0,119.111,59.342Z" transform="translate(-31 0)" fill="#fff"/>
  <ellipse id="Elipse_10" data-name="Elipse 10" cx="4.5" cy="4.504" rx="4.5" ry="4.504" transform="translate(36.242 15.314)" fill="#fff"/>
  <circle id="Elipse_11" data-name="Elipse 11" cx="4.5" cy="4.5" r="4.5" transform="translate(16.542 41.43)" fill="#fff"/>
  <circle id="Elipse_12" data-name="Elipse 12" cx="4.5" cy="4.5" r="4.5" transform="translate(55.941 31.43)" fill="#fff"/>
</svg>
