<svg id="_029-calendar" data-name="029-calendar" xmlns="http://www.w3.org/2000/svg" width="62.412" height="62.412" viewBox="0 0 62.412 62.412">
  <path id="Trazado_1559" data-name="Trazado 1559" d="M126.482,181.05a5.479,5.479,0,1,0,5.479,5.479A5.486,5.486,0,0,0,126.482,181.05Zm0,7.3a1.822,1.822,0,1,1,1.822-1.822A1.825,1.825,0,0,1,126.482,188.352Z" transform="translate(-106.253 -158.98)" fill="#fff"/>
  <path id="Trazado_1560" data-name="Trazado 1560" d="M246.481,181.05a5.479,5.479,0,1,0,5.479,5.479A5.486,5.486,0,0,0,246.481,181.05Zm0,7.3a1.822,1.822,0,1,1,1.822-1.822A1.825,1.825,0,0,1,246.481,188.352Z" transform="translate(-211.624 -158.98)" fill="#fff"/>
  <path id="Trazado_1561" data-name="Trazado 1561" d="M366.381,181.05a5.479,5.479,0,1,0,5.479,5.479A5.486,5.486,0,0,0,366.381,181.05Zm0,7.3a1.822,1.822,0,1,1,1.822-1.822A1.824,1.824,0,0,1,366.381,188.352Z" transform="translate(-316.909 -158.98)" fill="#fff"/>
  <path id="Trazado_1562" data-name="Trazado 1562" d="M60.584,3.779h-7.43V1.828a1.828,1.828,0,0,0-3.657,0v1.95H42.183V1.828a1.828,1.828,0,0,0-3.657,0v1.95H31.2V1.828a1.828,1.828,0,0,0-3.657,0v1.95H20.229V1.828a1.828,1.828,0,1,0-3.657,0v1.95H9.265A1.829,1.829,0,0,0,7.436,5.607l0,35.486a11.542,11.542,0,0,1-4.679,9.1L.745,51.675a1.83,1.83,0,0,0,1.084,3.3H7.436v5.607a1.829,1.829,0,0,0,1.828,1.828H60.584a1.829,1.829,0,0,0,1.828-1.828V5.607A1.829,1.829,0,0,0,60.584,3.779ZM16.572,7.436V9.264a1.828,1.828,0,1,0,3.657,0V7.436h7.314V9.264a1.828,1.828,0,0,0,3.657,0V7.436h7.326V9.264a1.828,1.828,0,0,0,3.657,0V7.436H49.5V9.264a1.828,1.828,0,0,0,3.657,0V7.436h5.6V14.75H11.093V7.436ZM58.755,58.755H11.093V54.976h42.03a1.827,1.827,0,0,0,.8-.187,15.139,15.139,0,0,0,4.827-3.734v7.7Zm-6.072-7.436H6.976A15.22,15.22,0,0,0,11.1,40.932l-.006-22.525H58.755V41.183A11.5,11.5,0,0,1,52.683,51.319Z" transform="translate(0)" fill="#fff"/>
  <path id="Trazado_1563" data-name="Trazado 1563" d="M366.381,301.05a5.479,5.479,0,1,0,5.479,5.479A5.486,5.486,0,0,0,366.381,301.05Zm0,7.3a1.822,1.822,0,1,1,1.822-1.822A1.824,1.824,0,0,1,366.381,308.352Z" transform="translate(-316.909 -264.352)" fill="#fff"/>
  <path id="Trazado_1564" data-name="Trazado 1564" d="M246.481,301.05a5.479,5.479,0,1,0,5.479,5.479A5.486,5.486,0,0,0,246.481,301.05Zm0,7.3a1.822,1.822,0,1,1,1.822-1.822A1.825,1.825,0,0,1,246.481,308.352Z" transform="translate(-211.624 -264.352)" fill="#fff"/>
  <path id="Trazado_1565" data-name="Trazado 1565" d="M126.482,301.05a5.479,5.479,0,1,0,5.479,5.479A5.486,5.486,0,0,0,126.482,301.05Zm0,7.3a1.822,1.822,0,1,1,1.822-1.822A1.825,1.825,0,0,1,126.482,308.352Z" transform="translate(-106.253 -264.352)" fill="#fff"/>
</svg>
