<svg xmlns="http://www.w3.org/2000/svg" width="70.493" height="70.393" viewBox="0 0 70.493 70.393">
  <g id="_037-diploma" data-name="037-diploma" transform="translate(0 -0.363)">
    <path id="Trazado_1550" data-name="Trazado 1550" d="M29.791,317.142,0,315.66v18.109l27.674-1.377v10.25l7.572-1.893,7.572,1.893v-10.25l27.674,1.377V315.66L40.7,317.142ZM31.8,328.157v-6.884h6.884v6.884ZM4.13,320l23.544,1.171v7.085L4.13,329.428Zm34.558,17.351-3.442-.861-3.442.861v-5.065h6.884Zm27.674-7.924-23.544-1.171v-7.085L66.363,320Z" transform="translate(0 -271.886)" fill="#fff"/>
    <path id="Trazado_1551" data-name="Trazado 1551" d="M72.91,25.773V16.684L76,15.334,41.794.363,7.593,15.334l15.476,6.774v17.64H60.519V22.108l8.261-3.616v7.281a6.205,6.205,0,0,0-4.13,5.84v8.135H77.041V31.614a6.205,6.205,0,0,0-4.13-5.841ZM41.794,4.872l19.182,8.4H41.3V17.4H60.976L41.794,25.8l-23.9-10.462ZM56.388,35.618H27.2v-11.7L41.794,30.3l14.594-6.388Zm16.522,0H68.78v-4a2.065,2.065,0,0,1,4.13,0Z" transform="translate(-6.548 0)" fill="#fff"/>
  </g>
</svg>
