<svg xmlns="http://www.w3.org/2000/svg" width="61.676" height="61.676" viewBox="0 0 61.676 61.676">
  <g id="_038-goal" data-name="038-goal" transform="translate(4 -45)">
    <path id="Trazado_1549" data-name="Trazado 1549" d="M36.243,19.271h-3.6V12.007H45.282L43.559,6l1.723-6H29.031V19.271h-3.6L0,44.664V61.676H61.676V44.664Zm-3.6-15.657h7.841L39.8,6l.686,2.39H32.645ZM58.062,47.221v3.614H3.614V47.221ZM6.174,43.607,18.705,31.094A5.418,5.418,0,0,0,26,33.653a5.42,5.42,0,0,0,9.666,0,5.418,5.418,0,0,0,7.3-2.558L55.5,43.607ZM26.928,22.884h7.82L39.872,28v.789a1.807,1.807,0,0,1-3.614,0H32.645V31.2a1.807,1.807,0,1,1-3.614,0V28.79H25.417a1.807,1.807,0,0,1-3.614,0V28ZM0,58.062V54.448H61.676v3.614Z" transform="translate(-4 45)" fill="#fff"/>
  </g>
</svg>
