<svg id="library" xmlns="http://www.w3.org/2000/svg" width="98.672" height="91.605" viewBox="0 0 98.672 91.605">
  <path id="Trazado_1505" data-name="Trazado 1505" d="M97.148,48.8a3.524,3.524,0,0,0,3.524-3.524V34.7a3.524,3.524,0,0,0-3.524-3.524H94.681L53.274,3.586a3.524,3.524,0,0,0-3.876,0L7.991,31.179H5.524A3.524,3.524,0,0,0,2,34.7V45.275A3.524,3.524,0,0,0,5.524,48.8H9.048V87.563H5.524a3.524,3.524,0,1,0,0,7.048H97.148a3.524,3.524,0,1,0,0-7.048H93.624V48.8Zm-3.524-7.048H9.048V38.227H93.624ZM37.24,52.323H26.668V48.8H37.24Zm-7.048,7.048h3.524v17.62H30.192Zm10.572,18.5V58.49A6.766,6.766,0,0,0,44.288,52.6V48.8h14.1V52.6a6.766,6.766,0,0,0,3.524,5.885V77.872a6.766,6.766,0,0,0-3.524,5.885v3.806h-14.1V83.757A6.766,6.766,0,0,0,40.764,77.872Zm28.192-18.5H72.48v17.62H68.956ZM76,52.323H65.432V48.8H76ZM51.336,10.74,81.995,31.179H20.677ZM16.1,48.8H19.62V52.6a6.766,6.766,0,0,0,3.524,5.885V77.872a6.766,6.766,0,0,0-3.524,5.885v3.806H16.1ZM26.668,87.563V84.039H37.24v3.524Zm38.764,0V84.039H76v3.524Zm21.144,0H83.052V83.757a6.766,6.766,0,0,0-3.524-5.885V58.49A6.766,6.766,0,0,0,83.052,52.6V48.8h3.524Z" transform="translate(-2 -3.005)" fill="#fff"/>
  <path id="Trazado_1506" data-name="Trazado 1506" d="M23.105,8h-6.07a3.035,3.035,0,1,0,0,6.07h6.07a3.035,3.035,0,0,0,0-6.07Z" transform="translate(29.266 9.991)" fill="#fff"/>
</svg>
