<svg xmlns="http://www.w3.org/2000/svg" width="43.739" height="52.823" viewBox="0 0 43.739 52.823">
  <g id="_016-placeholder" data-name="016-placeholder" transform="translate(-44.022)">
    <path id="Trazado_1572" data-name="Trazado 1572" d="M81.363,6.409A21.88,21.88,0,0,0,50.421,37.351L65.892,52.823,81.363,37.351a21.9,21.9,0,0,0,0-30.943ZM79.185,35.173,65.892,48.466,52.6,35.173a18.8,18.8,0,1,1,26.586,0Z" transform="translate(0 0)" fill="#fff"/>
    <path id="Trazado_1573" data-name="Trazado 1573" d="M135.113,69.148a15.144,15.144,0,0,0-25.9,10.665,15.3,15.3,0,0,0,4.494,10.941,15.061,15.061,0,0,0,21.3,0l.1-.1a15.223,15.223,0,0,0,0-21.5Zm-2.178,19.325-.1.1a11.994,11.994,0,0,1-16.943,0A12.245,12.245,0,0,1,112.3,79.82a12.081,12.081,0,0,1,20.637-8.494A12.139,12.139,0,0,1,132.935,88.473Z" transform="translate(-58.469 -58.02)" fill="#fff"/>
  </g>
</svg>
