<?xml version="1.0" encoding="UTF-8"?>
<svg id="Layer_2" data-name="Layer 2" xmlns="http://www.w3.org/2000/svg" viewBox="0 0 119.41 119.41">
  <defs>
    <style>
      .cls-1 {
        fill: #fff;
      }

      .cls-2 {
        fill: #bfb07e;
      }

      .cls-3 {
        fill: #23baaf;
      }

      .cls-4 {
        fill: #154472;
      }

      .cls-5 {
        fill: #274981;
      }
    </style>
  </defs>
  <g id="Layer_1-2" data-name="Layer 1">
    <g>
      <circle class="cls-1" cx="59.71" cy="59.71" r="59.71"/>
      <g>
        <path class="cls-2" d="m59.71,3.81c-15.06,0-29.21,5.81-39.86,16.37C9.2,30.74,3.33,44.77,3.33,59.71s5.86,28.97,16.51,39.52c10.65,10.56,24.8,16.37,39.86,16.37s29.21-5.81,39.86-16.37c10.65-10.56,16.51-24.59,16.51-39.52s-5.86-28.97-16.51-39.53C88.92,9.62,74.76,3.81,59.71,3.81m0,3.91c28.96,0,52.43,23.28,52.43,51.99s-23.48,51.99-52.43,51.99S7.27,88.42,7.27,59.71,30.75,7.71,59.71,7.71"/>
        <path class="cls-2" d="m59.71,24.43c-19.62,0-35.58,15.82-35.58,35.28s15.96,35.28,35.58,35.28,35.58-15.83,35.58-35.28-15.96-35.28-35.58-35.28m0,2.15c18.45,0,33.4,14.83,33.4,33.12s-14.96,33.12-33.4,33.12-33.4-14.83-33.4-33.12,14.96-33.12,33.4-33.12"/>
        <path class="cls-5" d="m24.64,79.57c-.29-.48-.7-.85-1.21-1.1.1-.32.25-.54.45-.66.2-.12.47,0,.81.34.35.34.68.78,1,1.31.53.87.72,1.63.6,2.28-.13.65-.71,1.29-1.76,1.91-1.15.68-2.15.93-2.99.75-.85-.18-1.55-.74-2.11-1.67-.37-.61-.58-1.05-.63-1.34-.05-.29.04-.5.27-.64.18-.11.43-.13.75-.08.08.69.27,1.28.57,1.77.25.41.59.63,1.01.66.42.02,1.02-.2,1.8-.66.92-.55,1.47-1.02,1.66-1.44.19-.41.12-.89-.21-1.44"/>
        <path class="cls-5" d="m20.17,76.84c1-.39,1.63-.79,1.87-1.17.25-.39.28-.81.1-1.25-.19-.47-.49-.74-.91-.81-.42-.07-1.04.05-1.85.37-1.03.41-1.66.8-1.9,1.18-.23.38-.26.8-.08,1.25.19.47.49.74.91.81.42.07,1.04-.05,1.85-.37m1.09,1.42c-1.22.48-2.23.55-3.04.22-.81-.33-1.41-.98-1.8-1.95-.37-.92-.43-1.7-.19-2.34s.93-1.19,2.06-1.64c1.22-.48,2.23-.55,3.04-.22.81.33,1.42,1,1.82,1.99.36.89.42,1.66.18,2.3-.24.64-.93,1.19-2.06,1.63"/>
        <path class="cls-5" d="m20.32,68.43l-.03-.12c-.24-1.09-.56-1.92-.96-2.51.19-.19.4-.31.66-.37.18-.04.32,0,.43.12.11.12.21.38.3.78l.89,4.03c-.13.09-.26.15-.4.18-.09.02-.16,0-.21-.03-.05-.04-.09-.11-.11-.2l-.08-.36c-.43.07-1.53.3-3.31.68-.96.21-1.65.37-2.06.48l.12.55c-.13.09-.26.15-.39.18-.09.02-.16,0-.22-.03-.05-.04-.09-.11-.11-.2l-.57-2.57c.11-.08.22-.13.35-.16.12-.03.2-.02.26.01.05.03.09.09.11.19l.1.47c.42-.07,1.12-.22,2.08-.42,1.77-.38,2.82-.62,3.14-.71"/>
        <path class="cls-5" d="m13.6,65.21l-.3-4.53c-.01-.21,0-.37.07-.46.06-.1.19-.15.39-.16.25-.02.51.05.78.19-.24.72-.32,1.62-.25,2.71l.02.24c.33,0,1-.04,2.01-.1l-.17-2.51c.17-.07.36-.11.55-.12.11,0,.19,0,.23.04.04.04.07.11.07.23l.15,2.31c1.29-.09,2.07-.15,2.33-.18l-.03-.41c-.08-1.12-.27-2-.57-2.63.21-.16.45-.25.7-.27.18-.01.32.05.41.18.09.13.15.4.18.82l.3,4.43c-.14.07-.28.11-.42.12-.09,0-.16-.01-.2-.06-.05-.05-.07-.12-.08-.22l-.02-.36c-.43,0-1.56.07-3.37.19-.98.06-1.69.12-2.11.17l.04.57c-.14.07-.28.11-.42.12-.09,0-.16-.01-.21-.06-.05-.05-.07-.12-.08-.22"/>
        <path class="cls-5" d="m19.5,54.78c-.63-.06-1.03-.08-1.18-.08-.16,0-.27,0-.34.03-.07.02-.12.05-.15.11-.03.05-.05.12-.06.2-.12.05-.23.07-.34.06-.13-.01-.22-.05-.27-.11-.05-.06-.07-.17-.05-.31l.1-1.08c.02-.22.07-.37.15-.44.08-.07.23-.09.46-.08l1.04.09c.44.04,1.01.07,1.72.1.02.19.01.41,0,.67,0,.07-.13.19-.38.35.25.64.34,1.27.28,1.91-.09,1.02-.41,1.74-.95,2.15-.54.41-1.38.56-2.5.47-1.3-.11-2.24-.5-2.81-1.16-.57-.66-.81-1.55-.71-2.69.06-.71.16-1.2.28-1.46.13-.26.32-.38.59-.35.26.02.51.15.75.38-.41.63-.64,1.25-.69,1.88-.04.46.09.83.4,1.11.31.28.92.46,1.84.54,1.07.09,1.81.04,2.21-.18.4-.21.62-.62.68-1.23.03-.29.01-.58-.04-.88"/>
        <path class="cls-5" d="m14.19,50.77l.61-2.66c.13-.03.26-.03.38,0,.12.03.19.07.23.12.03.05.04.13.02.22l-.11.47c.41.11,1.1.27,2.07.48,1.77.4,2.87.63,3.29.71l.15-.65c.13-.03.26-.03.38,0,.11.03.19.06.23.12.04.05.04.13.02.22l-.61,2.68c-.16.03-.3.02-.44,0-.09-.02-.15-.06-.18-.12-.03-.06-.03-.13-.01-.23l.1-.45c-.42-.11-1.51-.36-3.29-.76-.96-.21-1.65-.36-2.07-.43l-.15.65c-.16.03-.3.02-.43,0-.09-.02-.15-.06-.18-.12-.03-.06-.03-.13-.01-.23"/>
        <path class="cls-5" d="m18.88,45.86c1.01.38,1.73.51,2.18.39.45-.12.76-.41.93-.86.18-.47.14-.88-.12-1.21-.26-.33-.8-.65-1.62-.96-1.03-.39-1.77-.53-2.2-.4-.43.12-.74.41-.91.87-.18.47-.14.88.12,1.21.26.33.8.65,1.62.96m-.16,1.78c-1.22-.46-2.02-1.09-2.39-1.87-.37-.79-.37-1.67,0-2.65.35-.92.84-1.54,1.45-1.85.61-.31,1.49-.26,2.64.18,1.22.46,2.02,1.09,2.39,1.87.37.79.37,1.68-.02,2.69-.34.9-.82,1.5-1.44,1.81-.61.31-1.49.25-2.63-.18"/>
        <path class="cls-5" d="m19.88,36.09l1.48-2.3c.14.02.26.06.36.13.1.06.16.13.18.19.01.06,0,.13-.06.21l-.26.41c.35.24.95.63,1.78,1.15,1.53.97,2.48,1.56,2.85,1.77l.36-.56c.13.02.25.06.36.13.1.06.16.12.17.19.02.06,0,.13-.05.21l-1.49,2.32c-.16-.03-.29-.08-.41-.15-.08-.05-.12-.1-.13-.17,0-.06.01-.14.07-.22l.25-.39c-.35-.24-1.3-.85-2.83-1.82-.83-.52-1.43-.89-1.8-1.1l-.36.56c-.16-.03-.29-.08-.41-.15-.08-.05-.12-.11-.13-.17,0-.06.01-.14.07-.22"/>
        <path class="cls-5" d="m22.55,32l1.41-1.62c.95.22,1.83.42,2.66.58.83.16,1.8.44,2.9.81l-1.76-1.51c-.74-.64-1.28-1.09-1.62-1.35l-.37.43c-.15-.05-.27-.12-.38-.21-.07-.06-.11-.12-.11-.19,0-.07.03-.13.1-.21l1.48-1.7c.13.04.24.1.34.18.09.08.14.15.15.21,0,.06-.02.13-.09.2l-.29.33c.32.29.85.75,1.59,1.39l2.55,2.19c.24.21.37.37.39.48.01.11-.08.28-.29.52-.41.47-.66.72-.75.75-.09.03-.69-.05-1.81-.23-1.12-.19-2.29-.48-3.52-.89,1.75,1.5,2.79,2.38,3.12,2.65l.34-.39c.13.04.24.09.34.18.09.08.14.15.14.21,0,.06-.02.13-.08.2l-1.47,1.68c-.15-.05-.28-.12-.38-.21-.07-.06-.1-.12-.1-.19,0-.06.03-.13.1-.21l.27-.31c-.31-.29-1.16-1.03-2.53-2.21-.75-.64-1.29-1.09-1.63-1.35l-.34.39c-.15-.05-.28-.12-.38-.21-.07-.06-.11-.12-.11-.19,0-.06.03-.13.1-.21"/>
        <path class="cls-5" d="m33.73,29.28c-.26-.34-.95-1.22-2.1-2.62-.62-.76-1.04-1.26-1.26-1.5-.87.78-1.36,1.21-1.47,1.3-.13.1-.24.15-.34.15-.1,0-.2-.07-.3-.19-.14-.18-.26-.4-.34-.69.64-.3,1.37-.78,2.18-1.44l2.63-2.12c.12-.1.23-.15.32-.16.09,0,.19.05.29.18.19.23.3.51.34.84-.67.17-1.32.52-1.97,1.04l-.1.08c.19.26.6.78,1.22,1.54,1.14,1.4,1.86,2.26,2.14,2.58l.6-.48c.12.06.22.13.31.23.07.09.11.17.1.23,0,.06-.04.13-.12.19l-2.31,1.85c-.14-.08-.25-.17-.34-.27-.06-.07-.08-.14-.07-.2.01-.06.06-.13.13-.19l.44-.35Z"/>
        <path class="cls-5" d="m34.45,21.06l3.97-2.27c.19-.11.34-.15.45-.14.11.01.22.1.32.28.12.21.18.47.17.78-.75.1-1.61.43-2.56.97l-.21.12c.15.29.47.87.98,1.74l2.2-1.26c.14.12.26.27.35.43.06.1.08.17.06.23-.02.05-.07.11-.17.16l-2.02,1.16c.65,1.11,1.05,1.77,1.2,2l.36-.21c.98-.56,1.69-1.12,2.13-1.67.24.12.42.29.55.51.09.16.1.31.02.44-.08.14-.3.31-.66.52l-3.87,2.22c-.13-.1-.22-.2-.29-.32-.05-.08-.06-.15-.03-.21.02-.06.08-.12.16-.16l.32-.18c-.2-.38-.75-1.35-1.66-2.92-.49-.84-.85-1.45-1.09-1.81l-.5.28c-.13-.1-.22-.2-.29-.32-.05-.08-.06-.15-.04-.21.02-.06.08-.12.16-.16"/>
        <path class="cls-5" d="m43.87,19.93l.38-.14c.41-.15.69-.34.85-.57.16-.23.18-.51.05-.84-.16-.43-.38-.69-.66-.8s-.59-.1-.91.03c-.2.07-.35.15-.47.23.06.2.26.76.61,1.68l.16.42Zm1.04,2.7l.68-.25c.1.09.17.2.21.32.04.11.05.19.02.25-.02.06-.08.1-.17.14l-2.65.98c-.11-.12-.19-.24-.23-.37-.03-.08-.03-.15,0-.21.03-.06.09-.1.19-.14l.44-.16c-.13-.4-.52-1.45-1.16-3.14-.34-.91-.6-1.57-.76-1.96l-.63.23c-.11-.12-.18-.24-.23-.36-.03-.09-.03-.16,0-.21.03-.06.09-.1.18-.13l2.45-.91c.98-.36,1.73-.49,2.26-.37.52.12.89.47,1.12,1.07.31.82.01,1.58-.9,2.28.3.01.58.09.84.25.26.16.57.4.92.73.35.33.61.52.77.57.16.05.37.03.61-.06.19.25.25.44.19.59s-.31.29-.73.45c-.49.18-.85.25-1.08.22-.23-.04-.52-.29-.87-.77-.35-.48-.66-.81-.93-1-.27-.19-.56-.23-.86-.12-.16.06-.3.13-.42.21.35.93.6,1.56.74,1.89"/>
        <path class="cls-5" d="m48.67,14.92l2.13-.36c.59.77,1.15,1.48,1.69,2.12.53.65,1.11,1.47,1.72,2.46l-.39-2.27c-.17-.96-.3-1.65-.39-2.07l-.56.1c-.08-.13-.13-.27-.16-.4-.02-.09,0-.16.04-.21.04-.05.11-.08.21-.1l2.23-.38c.08.11.13.23.15.35.02.12.01.2-.02.25-.04.05-.1.09-.2.1l-.43.07c.06.42.17,1.11.34,2.08l.57,3.3c.05.31.05.51,0,.61-.06.09-.24.17-.55.22-.62.11-.97.14-1.06.11-.09-.03-.51-.47-1.25-1.32-.74-.85-1.46-1.82-2.16-2.9.39,2.26.63,3.59.72,4.01l.52-.09c.08.11.13.23.15.35.02.11.01.2-.02.25-.03.05-.1.09-.19.1l-2.21.38c-.08-.13-.14-.27-.16-.4-.02-.09,0-.16.04-.21.04-.05.11-.08.21-.1l.41-.07c-.05-.42-.23-1.52-.54-3.3-.17-.96-.3-1.65-.4-2.07l-.51.09c-.08-.13-.14-.27-.16-.4-.02-.09,0-.16.04-.21.04-.05.11-.08.21-.1"/>
        <path class="cls-5" d="m59.28,17.57l1.67.03c-.49-1.69-.76-2.53-.82-2.53-.06,0-.34.83-.84,2.5m1.01-3.94c.56,0,.88.03.95.07.07.04.39.92.95,2.64.56,1.72.96,2.91,1.22,3.57h.47c.06.13.08.25.08.38,0,.12-.03.2-.07.24-.04.05-.12.07-.21.07l-2.57-.04c-.05-.15-.08-.29-.08-.43,0-.09.03-.15.08-.2.05-.04.13-.06.22-.06h.22c-.05-.24-.17-.72-.36-1.44l-2.13-.03c-.2.7-.32,1.17-.38,1.43h.48c.06.13.08.25.08.38,0,.12-.03.2-.07.24-.04.05-.11.07-.21.07l-2.19-.03c-.05-.15-.08-.29-.08-.43,0-.09.03-.15.08-.2.05-.04.12-.06.22-.06h.27c.25-.63.63-1.67,1.13-3.11.51-1.43.84-2.31,1-2.61.16-.31.47-.46.91-.45"/>
        <path class="cls-5" d="m67.58,20.43c.56.1,1.1.04,1.63-.18.18.28.25.54.2.77-.04.22-.3.35-.78.39-.48.03-1.03,0-1.65-.11-1-.18-1.71-.52-2.12-1.04-.41-.52-.51-1.38-.3-2.57.23-1.31.69-2.22,1.38-2.73.69-.51,1.57-.68,2.64-.49.7.12,1.18.26,1.43.41.25.15.35.35.31.62-.04.21-.18.41-.43.61-.57-.39-1.14-.64-1.71-.74-.48-.08-.86.02-1.15.33-.29.3-.52.89-.67,1.78-.18,1.05-.18,1.77,0,2.19.19.41.6.67,1.23.78"/>
        <path class="cls-5" d="m72.3,15.42l2.63.81c.02.13,0,.26-.03.38-.04.11-.08.19-.14.22-.05.03-.13.03-.22,0l-.47-.14c-.14.4-.36,1.07-.65,2.01-.54,1.72-.87,2.78-.98,3.2l.64.2c.02.13,0,.26-.03.38-.04.11-.08.18-.14.21-.06.03-.13.03-.22,0l-2.64-.82c-.01-.16,0-.3.04-.43.03-.09.07-.14.13-.17.06-.02.14-.02.23,0l.45.14c.14-.4.49-1.46,1.03-3.19.29-.93.49-1.6.6-2.02l-.64-.2c-.01-.16,0-.3.04-.43.03-.09.07-.15.13-.17.06-.02.14-.02.23,0"/>
        <path class="cls-5" d="m76.87,20.45c-.46.97-.65,1.67-.56,2.12.08.45.35.78.78.99.46.22.87.21,1.22-.02.36-.23.72-.74,1.09-1.52.47-.99.67-1.71.58-2.14-.09-.44-.35-.76-.8-.97-.46-.22-.87-.21-1.22.02-.35.23-.72.74-1.09,1.52m-1.77-.3c.56-1.17,1.25-1.91,2.07-2.22.82-.31,1.7-.23,2.65.21.89.42,1.47.95,1.74,1.58.27.63.14,1.5-.38,2.59-.56,1.17-1.25,1.91-2.07,2.22-.82.31-1.71.23-2.69-.23-.87-.41-1.44-.93-1.7-1.57s-.14-1.49.39-2.59"/>
        <path class="cls-5" d="m84.57,20.75l1.74,1.27c-.15.95-.27,1.85-.37,2.68-.1.83-.29,1.81-.59,2.94l1.37-1.86c.58-.79.99-1.36,1.23-1.71l-.46-.33c.04-.15.1-.28.18-.39.06-.08.12-.11.18-.12.07,0,.14.02.22.08l1.83,1.33c-.03.13-.08.25-.15.35-.07.1-.14.15-.2.16s-.13-.01-.21-.07l-.35-.26c-.26.34-.69.9-1.27,1.69l-2,2.7c-.19.25-.34.39-.45.42-.11.02-.29-.06-.55-.24-.51-.37-.78-.6-.82-.68-.04-.09,0-.69.09-1.81.1-1.12.3-2.31.61-3.55-1.37,1.85-2.17,2.95-2.41,3.3l.42.31c-.03.13-.08.25-.15.35-.07.09-.14.15-.2.16-.06.01-.13,0-.21-.06l-1.81-1.31c.04-.15.1-.29.18-.39.05-.07.11-.11.18-.11.06,0,.14.02.22.08l.34.25c.27-.33.94-1.23,2.02-2.68.58-.79.99-1.36,1.23-1.72l-.42-.3c.04-.15.1-.28.18-.39.06-.08.12-.11.18-.12.06,0,.14.02.22.08"/>
        <path class="cls-5" d="m90,30.16l1.14,1.21c.88-1.52,1.31-2.3,1.26-2.34-.04-.04-.84.33-2.4,1.14m3.56-2.02c.38.41.59.65.61.73.02.08-.4.92-1.26,2.51s-1.44,2.71-1.74,3.35l.32.34c-.05.12-.12.23-.21.31-.09.08-.16.12-.22.12-.06,0-.13-.04-.2-.11l-1.76-1.86c.07-.14.15-.26.25-.35.07-.06.13-.09.2-.08.06,0,.13.05.2.12l.15.16c.14-.2.41-.62.79-1.26l-1.46-1.55c-.64.34-1.08.58-1.3.72l.33.35c-.05.12-.12.23-.21.31-.09.08-.16.12-.23.12-.06,0-.13-.03-.19-.1l-1.5-1.59c.07-.14.15-.26.25-.35.07-.06.13-.09.2-.08.06,0,.13.05.2.12l.19.2c.64-.27,1.65-.72,3.04-1.35s2.26-1,2.59-1.1c.34-.1.66.01.96.33"/>
        <path class="cls-5" d="m93.11,37.27l.07.1c.63.92,1.24,1.58,1.83,1.98-.1.24-.26.44-.47.58-.15.1-.3.12-.45.05-.14-.07-.33-.28-.57-.62l-2.33-3.42c.09-.13.19-.24.3-.31.08-.05.14-.07.21-.05.06.02.12.07.18.15l.21.3c.37-.22,1.31-.84,2.82-1.84.82-.54,1.4-.94,1.74-1.2l-.32-.47c.09-.13.19-.23.3-.31.08-.05.15-.07.21-.05.06.02.12.07.18.15l1.48,2.18c-.07.12-.16.21-.26.28-.1.07-.18.09-.24.08-.06-.01-.12-.05-.17-.13l-.27-.4c-.37.22-.96.61-1.78,1.16-1.51,1-2.39,1.61-2.65,1.8"/>
        <path class="cls-5" d="m98.93,43.48l.6,1.54c1.39-1.08,2.08-1.65,2.05-1.71-.02-.06-.91,0-2.66.17m4.06-.56c.2.52.3.82.29.9,0,.08-.71.7-2.11,1.87-1.4,1.16-2.36,1.98-2.87,2.46l.17.44c-.09.1-.2.17-.32.21-.11.04-.19.05-.25.03-.06-.02-.11-.08-.14-.17l-.93-2.38c.12-.11.24-.18.37-.23.08-.03.16-.03.21,0,.06.03.1.09.14.18l.08.2c.21-.13.61-.43,1.21-.88l-.77-1.97c-.73.08-1.22.14-1.47.19l.17.44c-.09.1-.2.17-.32.21-.11.04-.19.05-.25.03-.06-.02-.11-.08-.14-.17l-.79-2.03c.12-.11.24-.18.37-.23.08-.03.16-.03.21,0,.06.03.1.09.14.18l.1.25c.69-.01,1.8-.06,3.33-.13,1.53-.08,2.47-.1,2.82-.06.35.03.6.25.76.66"/>
        <path class="cls-5" d="m99.14,51.22l.02.12c.23,1.09.55,1.93.94,2.52-.19.19-.41.31-.66.36-.18.04-.32,0-.43-.12-.11-.12-.2-.38-.29-.79l-.87-4.04c.13-.09.27-.15.4-.18.09-.02.16,0,.21.03.05.04.09.11.11.2l.08.36c.43-.07,1.53-.29,3.31-.66.96-.2,1.65-.36,2.07-.47l-.12-.55c.13-.09.26-.15.4-.17.09-.02.16,0,.22.03.05.04.09.11.11.2l.55,2.57c-.11.08-.23.13-.35.16-.12.02-.2.02-.26-.01-.05-.03-.09-.1-.11-.19l-.1-.47c-.42.07-1.12.21-2.08.41-1.78.37-2.82.6-3.14.69"/>
        <path class="cls-5" d="m105.84,54.46l.28,4.54c.01.21-.01.37-.07.46-.06.1-.19.15-.4.16-.25.02-.51-.05-.78-.2.24-.72.33-1.62.26-2.71v-.24c-.34,0-1.01.03-2.02.09l.15,2.51c-.17.07-.36.11-.55.12-.11,0-.19,0-.23-.05-.04-.04-.07-.11-.07-.23l-.14-2.31c-1.29.08-2.07.14-2.33.17l.03.41c.07,1.12.26,2,.56,2.64-.21.16-.45.25-.7.26-.18.01-.32-.05-.41-.18-.09-.13-.15-.4-.17-.82l-.28-4.43c.14-.07.28-.11.42-.12.09,0,.16.02.2.06.04.05.07.12.08.22l.02.36c.43,0,1.56-.06,3.37-.17.98-.06,1.69-.11,2.11-.16l-.03-.57c.14-.07.28-.11.42-.12.09,0,.16.02.21.06.04.05.07.12.08.22"/>
        <path class="cls-5" d="m106.19,61.77l-.35,2.7c-.66.07-1.32.15-1.98.25-.66.09-1.34.18-2.04.26-.7.08-1.05.13-1.06.16,0,.02.62.28,1.87.76,1.25.48,2.22.83,2.9,1.06l-.33,2.6c-.13.04-.26.05-.38.04-.12-.02-.2-.05-.24-.1-.04-.05-.05-.12-.04-.21l.05-.38c-.56-.07-1.51-.16-2.84-.27-1.33-.11-2.21-.17-2.64-.19l-.06.47c-.13.04-.25.05-.38.04-.12-.01-.2-.05-.24-.1-.04-.05-.06-.12-.04-.22l.29-2.26c.15-.04.3-.05.43-.03.09.01.15.04.19.1s.05.13.03.22l-.02.18c.64.1,2.21.27,4.7.5-1.06-.39-1.98-.76-2.76-1.1-.78-.34-1.27-.59-1.47-.74-.2-.15-.28-.4-.24-.74.07-.51.12-.79.16-.84.04-.05.47-.16,1.29-.32.82-.16,2.02-.34,3.61-.55-2.51-.33-4.09-.53-4.73-.59l-.05.38c-.13.04-.25.05-.38.04-.12-.01-.2-.05-.24-.1-.04-.05-.06-.12-.04-.22l.27-2.07c.15-.04.3-.05.44-.04.09.01.15.04.19.1.04.05.05.13.03.23l-.04.32c.42.09,1.29.24,2.6.47,1.31.23,2.25.38,2.81.44l.07-.56c.15-.04.3-.05.43-.03.09.01.16.04.19.1.04.05.05.13.03.23"/>
        <path class="cls-5" d="m104.82,73.94l.6,1.93c-.38.28-.7.38-.95.29-.37-.13-.45-.82-.22-2.1l.57-.13Zm-4.56-1.63l-.54,1.56c1.77.06,2.66.06,2.68,0,.02-.06-.69-.58-2.14-1.57m3.47,2.16c-.18.53-.3.82-.36.88-.06.06-1,.08-2.82.08-1.82,0-3.09.01-3.8.05l-.15.44c-.13.01-.26,0-.38-.04-.11-.04-.18-.08-.21-.14-.03-.06-.03-.13,0-.22l.83-2.41c.16,0,.3.01.43.06.09.03.14.07.16.13.02.06.02.14-.01.23l-.07.21c.25.03.74.06,1.49.1l.69-2c-.61-.4-1.02-.67-1.25-.79l-.15.45c-.13.01-.26,0-.38-.04-.11-.04-.18-.08-.21-.14-.03-.06-.03-.13,0-.22l.71-2.06c.16,0,.3.01.43.06.09.03.14.07.16.13.02.06.02.13-.01.23l-.09.25c.54.43,1.42,1.11,2.64,2.02,1.22.92,1.96,1.5,2.2,1.75.25.25.3.58.15,1"/>
        <path class="cls-5" d="m101.6,79.69l-1.07,1.86c-.97-.03-1.88-.05-2.73-.06-.84,0-1.85-.08-3.01-.24l2.02,1.14c.86.48,1.47.82,1.86,1.01l.28-.49c.16.02.29.07.41.13.08.05.13.1.14.17.01.06,0,.14-.05.22l-1.12,1.95c-.14-.01-.26-.05-.37-.11-.1-.06-.17-.12-.18-.18-.02-.06,0-.13.05-.22l.22-.38c-.37-.22-.98-.57-1.84-1.06l-2.94-1.66c-.28-.16-.43-.29-.47-.39-.04-.1.02-.29.18-.57.31-.54.51-.84.59-.89.08-.05.69-.09,1.82-.12,1.13-.03,2.34.03,3.63.19-2.01-1.13-3.2-1.8-3.58-1.99l-.26.45c-.13,0-.26-.05-.37-.11-.1-.06-.16-.12-.18-.18-.02-.06,0-.13.04-.21l1.11-1.93c.16.02.3.06.42.13.08.04.12.1.14.16.01.06,0,.14-.06.22l-.21.36c.36.23,1.34.79,2.92,1.68.86.48,1.48.82,1.86,1.01l.26-.45c.16.02.3.06.41.13.08.05.13.1.14.16s0,.14-.06.22"/>
        <path class="cls-5" d="m37.66,97.24l.26.14c.35.2.66.28.91.26.25-.02.45-.15.58-.4.16-.29.2-.54.11-.77-.09-.23-.29-.42-.59-.6-.14-.08-.26-.13-.37-.17-.11.16-.35.57-.72,1.21l-.18.31Zm-1,1.82l.44.24c0,.07-.03.14-.06.2-.03.05-.06.08-.09.09-.03,0-.07,0-.12-.03l-1.43-.8c.01-.08.04-.15.07-.21.02-.04.05-.07.08-.07.03,0,.07,0,.12.03l.28.15c.18-.27.59-.98,1.25-2.14.35-.62.6-1.07.74-1.36l-.35-.2c.01-.08.04-.15.07-.21.02-.04.05-.07.08-.07.03,0,.07,0,.12.03l1.31.73c.62.35,1.01.68,1.18.99.17.32.15.66-.06,1.02-.32.56-.87.75-1.66.58.16.17.26.36.29.58.03.22.03.52,0,.88-.03.36-.03.6.01.71.04.11.13.2.27.27-.04.17-.1.26-.18.29-.08.02-.23-.03-.44-.14-.24-.13-.4-.26-.47-.38-.07-.12-.05-.41.05-.85.1-.45.13-.78.09-1.01-.04-.23-.18-.41-.42-.54-.13-.07-.26-.13-.39-.18-.39.7-.65,1.17-.77,1.41"/>
        <path class="cls-5" d="m41.82,96.82l1.43.65c0,.07-.02.14-.05.2-.02.05-.05.08-.08.1-.03.01-.07,0-.13-.02l-.29-.13c-.15.29-.38.76-.69,1.43-.54,1.18-.88,1.92-.99,2.22l.39.18c0,.07-.02.14-.05.2-.02.05-.05.08-.08.1s-.07,0-.13-.02l-1.43-.65c0-.08.02-.16.05-.22.02-.04.05-.07.08-.08.03,0,.07,0,.12.02l.29.13c.15-.28.5-1.03,1.06-2.24.3-.65.5-1.12.62-1.42l-.39-.18c0-.08.02-.16.05-.22.02-.04.05-.07.08-.08.03-.01.07,0,.12.02"/>
        <path class="cls-5" d="m46.53,98.72l1.19.43c0,.07,0,.14-.03.2-.02.05-.04.09-.07.1-.03.01-.07.01-.13,0l-.15-.05c-.28.35-.77.99-1.49,1.92-.71.93-1.14,1.46-1.27,1.56-.13.11-.31.12-.53.05-.25-.09-.39-.15-.41-.18-.02-.03,0-.71.04-2.05.04-1.34.06-2.21.03-2.61l-.26-.09c0-.08,0-.16.03-.22.02-.05.04-.07.07-.09.03-.01.07,0,.12,0l1.33.47c0,.08,0,.14-.03.2-.02.05-.04.09-.07.1-.03.01-.07.01-.13,0l-.16-.06c-.04.3-.09,1.01-.14,2.13-.06,1.12-.07,1.69-.04,1.7.03.01.37-.44,1-1.34.64-.91,1.02-1.5,1.16-1.78l-.29-.1c0-.08,0-.16.03-.22.02-.05.04-.08.07-.09.03-.01.07,0,.13,0"/>
        <path class="cls-5" d="m48.2,99.23l1.52.41c0,.07,0,.14-.01.21-.01.06-.04.09-.07.11-.03.02-.07.02-.13,0l-.31-.08c-.1.31-.25.82-.44,1.53-.34,1.25-.54,2.04-.61,2.35l.42.11c0,.07,0,.14-.01.21-.01.06-.04.09-.07.11-.03.02-.07.02-.13,0l-1.52-.41c0-.08,0-.16.01-.22.01-.05.03-.08.06-.09.03-.01.07-.01.13,0l.31.08c.1-.31.33-1.1.67-2.38.18-.69.31-1.19.38-1.5l-.42-.11c0-.08,0-.16.01-.22.01-.05.03-.08.06-.09.03-.01.07-.02.13,0"/>
        <path class="cls-5" d="m50.46,99.83l2.94.55c.13.02.22.06.26.1.04.05.05.12.03.23-.03.14-.1.27-.21.41-.4-.26-.98-.45-1.74-.59l-.3-.06c-.06.25-.17.76-.31,1.53l1.8.33c.01.09.01.19,0,.29-.01.06-.03.1-.06.12-.03.02-.07.02-.14,0l-1.68-.31c-.18.98-.29,1.58-.32,1.81l.48.09c.73.14,1.32.16,1.77.08.05.14.06.27.04.41-.02.1-.07.17-.14.2-.08.03-.22.03-.42,0l-2.98-.55c-.02-.08-.02-.16,0-.23,0-.05.03-.08.06-.09.03-.02.07-.02.12-.01l.25.05c.08-.32.24-1.12.48-2.43.13-.7.22-1.21.26-1.52l-.36-.07c-.02-.08-.02-.16,0-.22,0-.05.03-.08.06-.1.03-.02.07-.02.13-.01"/>
        <path class="cls-5" d="m55.33,102.92l.29.02c.4.03.72-.01.94-.14.22-.12.34-.32.36-.6.03-.33-.05-.57-.22-.74-.18-.17-.44-.27-.79-.3-.16-.01-.3-.01-.41,0-.03.2-.08.66-.14,1.4l-.03.36Zm-.14,2.07l.5.04c.02.07.03.14.03.2,0,.06-.02.1-.05.12-.02.02-.07.03-.12.02l-1.64-.13c-.02-.08-.03-.15-.03-.22,0-.05.02-.08.05-.1.03-.02.07-.03.12-.02l.32.03c.05-.32.12-1.14.23-2.46.06-.71.09-1.22.1-1.54l-.4-.03c-.02-.08-.03-.15-.02-.22,0-.05.02-.08.04-.1.03-.02.07-.03.12-.02l1.5.12c.71.06,1.2.2,1.49.41.28.22.41.54.37.95-.05.64-.48,1.04-1.27,1.21.22.08.38.22.51.41.12.19.25.46.37.8.12.34.23.56.31.64.08.08.2.13.36.14.03.17.02.28-.05.34-.07.05-.22.07-.46.05-.28-.02-.47-.07-.59-.16-.11-.08-.22-.35-.31-.79-.1-.45-.21-.77-.34-.95-.13-.19-.34-.3-.61-.32-.14-.01-.29-.01-.43,0-.06.79-.1,1.33-.11,1.6"/>
        <path class="cls-5" d="m60.03,103.58l1.32-.03c-.46-1.33-.7-1.99-.73-1.99-.03,0-.23.67-.58,2.02m.64-2.81c.26,0,.41,0,.45.02.04.02.29.66.75,1.92.47,1.26.78,2.07.95,2.44h.31c.03.06.05.13.05.19,0,.06,0,.1-.03.12-.02.02-.06.04-.12.04l-1.45.04c-.03-.08-.05-.15-.05-.22,0-.05.01-.08.03-.11.02-.02.06-.03.12-.04h.19c-.05-.21-.17-.6-.36-1.18l-1.58.04c-.15.58-.24.98-.26,1.19h.33c.03.06.05.13.05.19,0,.06,0,.1-.03.12-.02.02-.06.04-.12.04l-1.29.03c-.03-.08-.05-.15-.05-.22,0-.05.01-.08.03-.11.02-.02.06-.03.12-.04h.2c.14-.43.38-1.19.71-2.3.33-1.11.53-1.75.61-1.91.08-.17.23-.26.45-.26"/>
        <path class="cls-5" d="m65.21,100.54l1.41-.27c.19.37.44.85.75,1.42.32.57.57,1.04.75,1.4.19.36.29.54.3.54.02,0,.07-.52.17-1.56.1-1.03.16-1.77.17-2.22l1.39-.27c.04.06.07.13.08.19.01.06,0,.1-.01.13-.02.03-.06.05-.11.06l-.23.04c.07.42.21,1.1.42,2.05.21.94.35,1.57.44,1.88l.33-.06c.04.06.07.13.08.19.01.06,0,.1-.01.13-.02.03-.06.05-.12.06l-1.35.26c-.04-.07-.07-.14-.09-.21,0-.05,0-.08.02-.11.02-.03.06-.04.11-.06l.2-.04c-.06-.4-.3-1.6-.73-3.6-.05.72-.12,1.45-.21,2.2-.1.75-.17,1.2-.22,1.34-.05.14-.16.23-.33.26-.24.05-.38.06-.41.05-.03-.01-.26-.38-.69-1.1-.43-.72-.82-1.45-1.19-2.19.39,2.02.63,3.22.72,3.62l.32-.06c.04.06.07.13.08.19.01.06,0,.1-.01.13-.02.03-.06.05-.11.06l-1.26.24c-.04-.07-.07-.14-.08-.21,0-.05,0-.08.02-.11.02-.03.06-.04.11-.05l.25-.05c-.04-.32-.14-.96-.3-1.91-.16-.95-.29-1.64-.37-2.05l-.35.07c-.04-.07-.07-.14-.08-.21,0-.05,0-.08.02-.11.02-.03.06-.04.11-.06"/>
        <path class="cls-5" d="m72.75,101.64l1.25-.41c-.82-1.14-1.25-1.71-1.28-1.7-.03,0-.02.71.03,2.1m-.2-2.87c.25-.08.4-.12.43-.11.04,0,.47.55,1.28,1.62.81,1.08,1.35,1.76,1.61,2.06l.29-.09c.05.06.08.12.1.18.02.06.02.1,0,.13-.01.03-.05.05-.11.07l-1.38.45c-.05-.07-.09-.13-.11-.19-.02-.05-.01-.08,0-.11.02-.03.05-.05.1-.07l.18-.06c-.11-.18-.34-.52-.69-1.02l-1.5.49c.03.6.06,1.01.09,1.22l.31-.1c.05.06.08.12.1.18.02.06.02.1,0,.13-.01.03-.05.05-.11.07l-1.22.4c-.05-.07-.09-.13-.11-.19-.02-.05-.01-.08,0-.11.02-.03.05-.05.1-.07l.19-.06c.01-.45.02-1.25.01-2.4,0-1.15,0-1.82.03-2.01.03-.18.15-.31.36-.38"/>
        <path class="cls-5" d="m78.21,96.96c-.04.49-.09,1.55-.14,3.15.19.43.36.79.5,1.08l.47-.21c.06.05.1.11.12.17.02.05.03.1.02.13-.01.03-.05.06-.1.08l-1.58.69c-.06-.06-.1-.12-.13-.18-.02-.04-.02-.08,0-.11.01-.03.05-.06.1-.08l.35-.15c-.11-.3-.26-.65-.43-1.04-1.32-1.09-2.17-1.78-2.55-2.05l-.25.11c-.06-.06-.1-.12-.13-.18-.02-.04-.02-.08,0-.11.01-.03.05-.06.1-.08l1.29-.56c.05.05.09.11.12.17.02.05.03.09.02.13-.01.03-.04.06-.1.08l-.16.07c.22.24.58.59,1.09,1.06.51.47.77.69.8.68.02-.01.02-.34,0-1-.03-.66-.06-1.16-.12-1.51l-.28.12c-.06-.06-.1-.12-.13-.18-.02-.04-.02-.08,0-.11.01-.03.05-.06.1-.08l1.16-.51c.05.05.09.11.12.17.02.05.03.09.02.13-.01.03-.04.06-.1.08l-.15.06Z"/>
        <path class="cls-5" d="m80.64,98.36l1.15-.64c-1.03-.96-1.56-1.43-1.59-1.42-.03.02.12.7.44,2.06m-.76-2.78c.23-.13.36-.19.41-.19s.56.45,1.57,1.35c1.01.9,1.67,1.47,1.99,1.72l.27-.15c.06.05.1.1.14.16.03.05.04.09.03.12,0,.03-.04.06-.09.09l-1.27.7c-.07-.05-.11-.11-.15-.17-.02-.04-.03-.08-.02-.11.01-.03.04-.06.09-.09l.16-.09c-.14-.16-.43-.45-.88-.87l-1.38.77c.14.59.25.98.33,1.18l.28-.16c.06.05.1.1.14.16.03.05.04.09.03.12,0,.03-.04.06-.09.09l-1.12.62c-.06-.06-.11-.11-.14-.17-.02-.04-.03-.08-.02-.11.01-.03.04-.06.09-.09l.18-.1c-.07-.44-.23-1.23-.46-2.36-.23-1.13-.35-1.79-.36-1.98,0-.19.08-.33.28-.44"/>
        <path class="cls-5" d="m68.29,85.39h.09c.11,0,.19-.02.26-.07.06-.05.1-.11.1-.21,0-.1-.03-.17-.08-.22-.06-.05-.13-.07-.22-.07-.05,0-.09,0-.13.01,0,.07,0,.21,0,.43v.12Zm0,.65h.11s.02.05.02.08c0,.02,0,.04-.01.04,0,0-.02.01-.04.01h-.5s-.02-.06-.02-.09c0-.02,0-.03.01-.04,0,0,.02-.01.04-.01h.07c0-.1,0-.36,0-.78,0-.22,0-.39,0-.49h-.1s-.02-.06-.02-.09c0-.02,0-.03.01-.04,0,0,.02-.01.04-.01h.5c.22,0,.39.03.49.1.1.06.15.16.15.3,0,.2-.13.34-.38.43.08.02.14.06.19.12.05.06.09.14.13.24.04.1.08.17.1.19s.06.04.11.04c.02.06.01.1,0,.12-.02.02-.07.03-.14.03-.11,0-.18-.01-.22-.04-.04-.02-.08-.11-.12-.25-.04-.14-.08-.24-.12-.29-.04-.05-.1-.08-.16-.08-.04,0-.09,0-.13.01,0,.23,0,.39,0,.48m.14-1.71c-.34,0-.59.1-.76.3-.17.2-.25.49-.25.88,0,.34.09.6.27.78.18.18.46.27.83.27.33,0,.59-.1.75-.3.17-.2.25-.49.25-.88,0-.34-.09-.6-.27-.78-.18-.18-.46-.27-.83-.27m.12-.2c.42,0,.73.1.94.31.21.21.31.5.31.88,0,.45-.12.8-.36,1.05-.24.25-.59.38-1.04.38-.43,0-.74-.1-.95-.31-.2-.21-.3-.5-.3-.88,0-.45.12-.8.36-1.05.24-.25.59-.38,1.04-.38"/>
        <path class="cls-3" d="m59.72,61.89c.06-.12.11-.25.17-.37.03-.06.03-.15.12-.18.11.04.12.15.16.24.58,1.39,1.16,2.78,1.74,4.16.84,2.01,1.69,4.02,2.52,6.03.1.23.22.3.47.29,1.47-.01,2.95,0,4.42,0h.37c.03.15-.06.23-.11.32-.72,1.13-1.52,2.2-2.41,3.21-1.11,1.26-2.34,2.39-3.7,3.38-.31.23-.64.44-.95.66-.13.1-.24.11-.39.02-.83-.48-1.63-1.01-2.4-1.57v-16.18Z"/>
        <path class="cls-3" d="m59.72,50.53c-4.11,0-8.16.51-11.98,1.46v.42c.03.71.07,1.41.11,2.12.03.5.06,1,.13,1.49.1.69.19,1.38.3,2.06.16.98.36,1.94.58,2.91.37,1.58.86,3.12,1.45,4.64.12.31.23.63.4.92.15-.08.17-.22.22-.34.81-1.85,1.61-3.69,2.42-5.54.78-1.78,1.55-3.56,2.33-5.33.42-.96.85-1.91,1.25-2.88.12-.28.26-.42.6-.42.73,0,1.46.01,2.18.01v-1.52Z"/>
        <path class="cls-3" d="m59.72,78.07c-.32-.24-.64-.48-.96-.74-1.05-.85-2.03-1.77-2.94-2.75-.37-.4-.73-.82-1.08-1.25-.11-.13-.1-.24-.03-.38.69-1.51,1.37-3.02,2.05-4.53.99-2.18,1.97-4.36,2.96-6.54v16.18Z"/>
        <path class="cls-4" d="m60.06,58.34c.07.04.09.12.12.19.15.35.29.7.44,1.06.86,2.07,1.73,4.14,2.6,6.21.67,1.6,1.34,3.2,2,4.8.08.18.15.31.39.31,1.37-.01,2.75,0,4.12,0,.08,0,.18.03.25-.08-.05-.13-.1-.26-.15-.39-.31-.7-.62-1.4-.92-2.1-.59-1.35-1.17-2.7-1.76-4.05-.96-2.2-1.93-4.39-2.89-6.59-.61-1.4-1.22-2.8-1.82-4.2-.1-.23-.22-.3-.47-.3-.75,0-1.5.01-2.24,0v5.72c.06-.14.13-.29.19-.43.03-.06.02-.16.14-.15"/>
        <path class="cls-4" d="m62.28,83.4c-.87-.41-1.72-.86-2.55-1.34v4.37c.08.03.17.06.25.09.11.04.2.06.32.02,1.21-.34,2.36-.78,3.43-1.43.33-.2.66-.41.93-.72-.12-.05-.22-.09-.32-.13-.69-.27-1.38-.55-2.05-.87"/>
        <path class="cls-5" d="m76.35,51.9c-5.22-1.82-10.83-2.81-16.68-2.81s-11.1.93-16.18,2.64l-.05,1.12c0,1.04-.02,2.09.06,3.13.06.69.09,1.39.16,2.08.07.68.18,1.36.29,2.03.16.96.37,1.92.63,2.86.58,2.13,1.36,4.18,2.39,6.14.6,1.14,1.27,2.25,2.02,3.3.03.04.05.1.14.12.1-.09.14-.22.2-.35.86-1.89,1.7-3.78,2.56-5.67.82-1.82,1.65-3.63,2.47-5.45.84-1.87,1.69-3.74,2.53-5.61.29-.65.59-1.29.87-1.94.1-.23.22-.32.5-.32.49,0,.98,0,1.47.01v5.72c-.61,1.37-1.22,2.74-1.83,4.11-.83,1.85-1.65,3.7-2.48,5.56-.7,1.56-1.4,3.13-2.08,4.69-.09.21-.21.29-.44.29-.85-.01-1.7,0-2.54,0-.08,0-.16,0-.23,0-.06,0-.12,0-.15.04-.05.07.02.12.06.17.85,1.07,1.76,2.08,2.74,3.04.92.9,1.9,1.75,2.92,2.54,1.13.87,2.31,1.68,3.53,2.41.17.1.35.2.53.31v4.37c-1.13-.41-2.23-.89-3.29-1.43-1.25-.63-2.44-1.35-3.58-2.16-1.35-.95-2.6-2.01-3.76-3.18-1.77-1.78-3.27-3.76-4.54-5.91-.82-1.39-1.54-2.84-2.16-4.33-.69-1.66-1.27-3.36-1.73-5.1-.24-.88-.43-1.77-.63-2.66-.22-1.02-.36-2.06-.54-3.08-.08-.41-.11-.82-.14-1.23-.08-.94-.19-1.88-.24-2.83-.04-.8-.05-1.61-.05-2.41,0-.88,0-1.35,0-2.24v-.41h0c6.36-2.59,13.32-4.01,20.62-4.01s14.26,1.43,20.62,4.01l-.02.29c0,2.1.08,4.2-.09,6.3-.09,1.17-.2,2.34-.38,3.5-.18,1.15-.38,2.29-.65,3.43-.43,1.82-.99,3.6-1.69,5.35-.51,1.28-1.09,2.52-1.74,3.74-.84,1.56-1.8,3.05-2.88,4.47-1.07,1.4-2.24,2.71-3.54,3.9-.49.45-1,.87-1.52,1.27-.14.11-.28.15-.46.13-1.37-.17-2.63-.63-3.87-1.19,0,0-.01-.02-.03-.03.01-.12.13-.16.22-.22,1.22-.83,2.34-1.78,3.38-2.81,1.3-1.3,2.42-2.73,3.42-4.26,1.39-2.15,2.48-4.44,3.34-6.84.38-1.04.7-2.1.99-3.18.3-1.12.56-2.26.78-3.4.23-1.18.4-2.38.53-3.58.14-1.2.22-2.4.24-3.61l.02-.8"/>
        <path class="cls-3" d="m59.72,52.05c1,0,2,0,3.01-.01.27,0,.4.09.5.32.27.64.56,1.28.84,1.92,1.16,2.66,2.32,5.31,3.48,7.97,1.09,2.49,2.17,4.98,3.25,7.46.03.08.05.17.16.21.12-.1.16-.25.23-.38.65-1.31,1.21-2.66,1.68-4.04.54-1.56.98-3.16,1.3-4.78.15-.76.28-1.52.4-2.28.12-.75.2-1.51.29-2.26.11-.91.16-1.82.19-2.73v-.47c-4.82-1.58-9.97-2.45-15.32-2.45v1.52Z"/>
        <path class="cls-5" d="m80.27,46.1c-3.02-1.19-6.13-2.1-9.27-2.75v-3.36c2.16.44,4.3,1.01,6.4,1.71v-1.47c-2.69-.89-5.43-1.57-8.19-2.04v6.3c3.76.64,7.47,1.67,11.06,3.08v-1.47Zm-12.26-9.09c3.57.53,7.1,1.41,10.54,2.63v3.44c-2.09-.74-4.21-1.36-6.36-1.84v1.4c2.74.62,5.44,1.45,8.08,2.49v-6.3c-4.55-1.79-9.28-2.96-14.06-3.51v7.29c-3.57-.41-7.17-.48-10.75-.21v-3.36c2.17-.16,4.34-.2,6.52-.12v-1.47c-2.78-.11-5.56-.02-8.32.28v6.3c4.77-.52,9.6-.42,14.36.29v-7.29Zm-15.56-.14c3.56-.46,7.16-.59,10.74-.36v3.44c-2.17-.13-4.35-.14-6.52-.02v1.4c2.78-.15,5.56-.1,8.33.17v-6.3c-4.78-.45-9.6-.29-14.35.49v7.29c-3.3.54-6.56,1.37-9.75,2.51v-3.36c1.84-.65,3.7-1.21,5.57-1.66v-1.47c-2.47.6-4.91,1.37-7.3,2.31v6.3c4.3-1.69,8.76-2.83,13.27-3.41v-7.29m-3,5.31c-2.49.46-4.96,1.09-7.38,1.9v-1.4c1.84-.61,3.71-1.12,5.6-1.54v-3.44c-2.88.63-5.72,1.49-8.49,2.58v-1.47c3.34-1.31,6.79-2.29,10.27-2.94v6.3Z"/>
      </g>
    </g>
  </g>
</svg>