<svg width="175" height="175" viewBox="0 0 175 175" fill="none" xmlns="http://www.w3.org/2000/svg">
<g clip-path="url(#clip0_1_55)">
<path d="M87.5073 175.015C135.836 175.015 175.015 135.836 175.015 87.5073C175.015 39.1784 135.836 0 87.5073 0C39.1784 0 0 39.1784 0 87.5073C0 135.836 39.1784 175.015 87.5073 175.015Z" fill="white"/>
<path d="M87.5073 5.5837C65.4363 5.5837 44.6989 14.0985 29.091 29.5746C13.483 45.0507 4.88025 65.6122 4.88025 87.5073C4.88025 109.402 13.4683 129.964 29.0763 145.425C44.6843 160.902 65.4217 169.416 87.4927 169.416C109.564 169.416 130.301 160.902 145.909 145.425C161.517 129.949 170.105 109.388 170.105 87.5073C170.105 65.6268 161.517 45.0507 145.909 29.5746C130.316 14.0985 109.564 5.5837 87.5073 5.5837ZM87.5073 11.314C129.949 11.314 164.346 45.4317 164.346 87.5073C164.346 129.583 129.935 163.701 87.5073 163.701C45.08 163.701 10.6545 129.583 10.6545 87.5073C10.6545 45.4317 45.0653 11.2993 87.5073 11.2993" fill="#BFB07E"/>
<path d="M87.5073 35.8031C58.7535 35.8031 35.3635 58.9879 35.3635 87.5073C35.3635 116.027 58.7535 139.212 87.5073 139.212C116.261 139.212 139.651 116.012 139.651 87.5073C139.651 59.0026 116.261 35.8031 87.5073 35.8031ZM87.5073 38.954C114.547 38.954 136.456 60.688 136.456 87.4927C136.456 114.297 114.532 136.031 87.5073 136.031C60.4828 136.031 38.5583 114.297 38.5583 87.4927C38.5583 60.688 60.4828 38.954 87.5073 38.954Z" fill="#BFB07E"/>
<path d="M36.1109 116.613C35.6859 115.909 35.085 115.367 34.3376 115.001C34.4841 114.532 34.704 114.209 34.9971 114.034C35.2902 113.858 35.6859 114.034 36.1842 114.532C36.6971 115.03 37.1807 115.675 37.6497 116.452C38.4264 117.727 38.7049 118.841 38.529 119.793C38.3385 120.746 37.4885 121.684 35.9497 122.592C34.2643 123.589 32.7988 123.955 31.5677 123.691C30.322 123.428 29.2961 122.607 28.4754 121.244C27.9332 120.35 27.6254 119.705 27.5521 119.28C27.4789 118.855 27.6108 118.547 27.9478 118.342C28.2116 118.181 28.578 118.152 29.047 118.225C29.1642 119.236 29.4427 120.101 29.8823 120.819C30.2487 121.42 30.747 121.742 31.3625 121.786C31.9781 121.816 32.8574 121.493 34.0005 120.819C35.3488 120.013 36.1548 119.324 36.4333 118.709C36.7117 118.108 36.6092 117.404 36.1255 116.598" fill="#274981"/>
<path d="M29.5599 112.612C31.0255 112.04 31.9488 111.454 32.3005 110.897C32.6669 110.326 32.7108 109.71 32.447 109.065C32.1686 108.377 31.7289 107.981 31.1134 107.878C30.4979 107.776 29.5892 107.952 28.4022 108.421C26.8926 109.021 25.9694 109.593 25.6176 110.15C25.2806 110.707 25.2366 111.322 25.5004 111.982C25.7788 112.671 26.2185 113.066 26.834 113.169C27.4496 113.272 28.3582 113.096 29.5453 112.627M31.1427 114.708C29.3548 115.411 27.8746 115.514 26.6875 115.03C25.5004 114.547 24.6211 113.594 24.0495 112.172C23.5073 110.824 23.4193 109.681 23.7711 108.743C24.1228 107.805 25.134 106.999 26.7901 106.34C28.578 105.636 30.0582 105.533 31.2453 106.017C32.4324 106.501 33.3264 107.483 33.9126 108.934C34.4402 110.238 34.5281 111.366 34.1764 112.304C33.8246 113.242 32.8134 114.048 31.1574 114.693" fill="#274981"/>
<path d="M29.7797 100.287L29.7358 100.111C29.3841 98.5135 28.9151 97.2971 28.3289 96.4325C28.6073 96.154 28.9151 95.9781 29.2961 95.8902C29.5599 95.8316 29.7651 95.8902 29.9263 96.0661C30.0875 96.2419 30.2341 96.623 30.366 97.2092L31.6703 103.115C31.4798 103.247 31.2893 103.335 31.0841 103.379C30.9522 103.408 30.8496 103.379 30.7763 103.335C30.703 103.277 30.6444 103.174 30.6151 103.042L30.4979 102.514C29.8677 102.617 28.2556 102.954 25.6469 103.511C24.24 103.819 23.2288 104.053 22.6279 104.214L22.8038 105.021C22.6133 105.152 22.4227 105.24 22.2322 105.284C22.1003 105.314 21.9977 105.284 21.9098 105.24C21.8365 105.182 21.7779 105.079 21.7486 104.947L20.9132 101.181C21.0744 101.064 21.2357 100.99 21.4262 100.946C21.602 100.902 21.7193 100.917 21.8072 100.961C21.8805 101.005 21.9391 101.093 21.9684 101.239L22.115 101.928C22.7305 101.826 23.7564 101.606 25.1633 101.313C27.7573 100.756 29.2961 100.404 29.7651 100.272" fill="#274981"/>
<path d="M19.9313 95.5678L19.4917 88.9289C19.477 88.6211 19.4917 88.3866 19.5942 88.2547C19.6822 88.1082 19.8727 88.0349 20.1658 88.0203C20.5322 87.9909 20.9132 88.0935 21.3089 88.2987C20.9572 89.3539 20.84 90.6729 20.9425 92.2703L20.9719 92.622C21.4555 92.622 22.4374 92.5634 23.9176 92.4755L23.6684 88.797C23.9176 88.6944 24.196 88.6358 24.4745 88.6211C24.6357 88.6211 24.7529 88.6211 24.8116 88.6797C24.8702 88.7384 24.9142 88.841 24.9142 89.0168L25.134 92.4022C27.0245 92.2703 28.1676 92.1824 28.5487 92.1384L28.5047 91.5375C28.3875 89.8961 28.109 88.6065 27.6694 87.6832C27.9771 87.4487 28.3289 87.3168 28.6952 87.2875C28.959 87.2728 29.1642 87.3608 29.2961 87.5513C29.428 87.7418 29.5159 88.1375 29.5599 88.753L29.9996 95.2454C29.7944 95.3479 29.5892 95.4066 29.384 95.4212C29.2521 95.4212 29.1496 95.4066 29.0909 95.3333C29.0177 95.26 28.9884 95.1574 28.9737 95.0109L28.9444 94.4833C28.3142 94.4833 26.6581 94.5859 24.0055 94.7617C22.5693 94.8497 21.5288 94.9376 20.9132 95.0109L20.9719 95.8462C20.7667 95.9488 20.5615 96.0074 20.3563 96.0221C20.2244 96.0221 20.1218 96.0074 20.0486 95.9342C19.9753 95.8609 19.946 95.7583 19.9313 95.6117" fill="#274981"/>
<path d="M28.578 80.2822C27.6547 80.1943 27.0685 80.165 26.8487 80.165C26.6142 80.165 26.453 80.165 26.3504 80.2089C26.2478 80.2382 26.1745 80.2822 26.1306 80.3701C26.0866 80.4434 26.0573 80.546 26.0426 80.6633C25.8668 80.7365 25.7056 80.7658 25.5443 80.7512C25.3538 80.7365 25.2219 80.6779 25.1487 80.59C25.0754 80.502 25.0461 80.3408 25.0754 80.1357L25.2219 78.5529C25.2512 78.2305 25.3245 78.0106 25.4418 77.908C25.559 77.8055 25.7788 77.7761 26.1159 77.7908L27.6401 77.9227C28.2849 77.9813 29.1203 78.0253 30.1608 78.0693C30.1901 78.3477 30.1754 78.6701 30.1608 79.0512C30.1608 79.1537 29.9703 79.3296 29.6039 79.5641C29.9703 80.502 30.1022 81.4253 30.0142 82.3633C29.8823 83.8581 29.4134 84.9133 28.622 85.5142C27.8306 86.1151 26.5995 86.3349 24.9581 86.203C23.0529 86.0418 21.6753 85.4702 20.84 84.503C20.0046 83.5357 19.6529 82.2314 19.7994 80.5607C19.8874 79.5201 20.0339 78.802 20.2098 78.421C20.4003 78.0399 20.6788 77.8641 21.0745 77.908C21.4555 77.9374 21.8219 78.1279 22.1736 78.4649C21.5727 79.3882 21.2357 80.2969 21.1624 81.2202C21.1038 81.8943 21.2943 82.4366 21.7486 82.8469C22.2029 83.2573 23.0969 83.5211 24.4452 83.6383C26.0133 83.7702 27.0978 83.6969 27.684 83.3745C28.2702 83.0667 28.5927 82.4659 28.6806 81.5719C28.7246 81.1469 28.6953 80.7219 28.622 80.2822" fill="#274981"/>
<path d="M20.796 74.4054L21.69 70.5071C21.8805 70.4631 22.071 70.4631 22.2469 70.5071C22.4228 70.551 22.5253 70.6097 22.584 70.6829C22.6279 70.7562 22.6426 70.8735 22.6133 71.0054L22.4521 71.6942C23.0529 71.8554 24.0642 72.0899 25.4857 72.3976C28.0797 72.9838 29.6918 73.3209 30.3073 73.4382L30.5272 72.4855C30.7177 72.4416 30.9082 72.4416 31.0841 72.4855C31.2453 72.5295 31.3625 72.5735 31.4212 72.6614C31.4798 72.7347 31.4798 72.8519 31.4505 72.9838L30.5565 76.9115C30.322 76.9554 30.1168 76.9408 29.9117 76.9115C29.7798 76.8822 29.6918 76.8235 29.6479 76.7356C29.6039 76.6477 29.6039 76.5451 29.6332 76.3985L29.7798 75.739C29.1642 75.5778 27.5668 75.2114 24.9581 74.6252C23.5512 74.3175 22.54 74.0976 21.9245 73.9951L21.7046 74.9477C21.4702 74.9916 21.265 74.977 21.0745 74.9477C20.9426 74.9183 20.8546 74.8597 20.8107 74.7718C20.7667 74.6839 20.7667 74.5813 20.796 74.4347" fill="#274981"/>
<path d="M27.6694 67.2096C29.1496 67.7665 30.2048 67.957 30.8643 67.7812C31.5238 67.6053 31.9781 67.1803 32.2272 66.5208C32.491 65.832 32.4324 65.2311 32.0513 64.7475C31.6703 64.2639 30.8789 63.7949 29.6772 63.3406C28.1677 62.769 27.0832 62.5639 26.453 62.7544C25.8228 62.9302 25.3685 63.3552 25.1193 64.0294C24.8555 64.7182 24.9142 65.3191 25.2952 65.8027C25.6763 66.2863 26.4676 66.7553 27.6694 67.2096ZM27.4349 69.8183C25.6469 69.1441 24.4745 68.2208 23.9323 67.0777C23.39 65.9199 23.39 64.6303 23.9323 63.194C24.4452 61.8457 25.1633 60.9371 26.0573 60.4828C26.9513 60.0285 28.2409 60.1018 29.9263 60.7466C31.7143 61.4207 32.8867 62.344 33.429 63.4871C33.9712 64.6449 33.9712 65.9492 33.3996 67.4294C32.9014 68.7484 32.1979 69.6278 31.2893 70.0821C30.3953 70.5364 29.1056 70.4485 27.4349 69.8183Z" fill="#274981"/>
<path d="M29.1349 52.8913L31.3039 49.5206C31.5091 49.5499 31.6849 49.6085 31.8315 49.7111C31.9781 49.799 32.066 49.9016 32.0953 49.9895C32.1099 50.0775 32.0953 50.18 32.0074 50.2973L31.6263 50.8982C32.1393 51.2499 33.0186 51.8214 34.235 52.5835C36.4773 54.0051 37.8695 54.8698 38.4118 55.1775L38.9394 54.3568C39.1299 54.3861 39.3057 54.4448 39.467 54.5474C39.6135 54.6353 39.7014 54.7232 39.7161 54.8258C39.7454 54.9137 39.7161 55.0163 39.6428 55.1336L37.4592 58.5336C37.2247 58.4896 37.0342 58.4164 36.8583 58.3138C36.7411 58.2405 36.6824 58.1672 36.6678 58.0646C36.6678 57.9767 36.6824 57.8595 36.7704 57.7422L37.1367 57.1707C36.6238 56.8189 35.2315 55.925 32.9893 54.5034C31.7729 53.7413 30.8936 53.1991 30.3513 52.8913L29.8237 53.712C29.5892 53.668 29.3987 53.5948 29.2228 53.4922C29.1056 53.4189 29.047 53.331 29.0323 53.243C29.0323 53.1551 29.047 53.0378 29.1349 52.9206" fill="#274981"/>
<path d="M33.0479 46.8972L35.1143 44.5231C36.5066 44.8455 37.7963 45.1386 39.0127 45.3731C40.2291 45.6076 41.6506 46.0179 43.2627 46.5602L40.6834 44.3472C39.5989 43.4093 38.8075 42.7498 38.3092 42.3687L37.7669 42.9989C37.5471 42.9256 37.3712 42.823 37.21 42.6911C37.1075 42.6032 37.0488 42.5153 37.0488 42.4127C37.0488 42.3101 37.0928 42.2222 37.1954 42.1049L39.3644 39.6135C39.5549 39.6721 39.7161 39.7601 39.8627 39.8773C39.9946 39.9945 40.0678 40.0971 40.0825 40.1851C40.0825 40.273 40.0532 40.3756 39.9506 40.4782L39.5256 40.9618C39.9946 41.3868 40.7713 42.061 41.8558 42.9989L45.5929 46.2084C45.9447 46.5162 46.1352 46.7507 46.1645 46.9119C46.1791 47.0731 46.0472 47.3222 45.7395 47.674C45.1386 48.3628 44.7722 48.7292 44.6403 48.7731C44.5084 48.8171 43.6291 48.6998 41.9877 48.4361C40.3463 48.1576 38.6316 47.7326 36.829 47.1317C39.3937 49.33 40.9179 50.6197 41.4015 51.0154L41.8998 50.4438C42.0903 50.5025 42.2515 50.5757 42.398 50.7076C42.5299 50.8249 42.6032 50.9275 42.6032 51.0154C42.6032 51.1033 42.5739 51.2059 42.486 51.3085L40.3316 53.7706C40.1118 53.6973 39.9213 53.5947 39.7747 53.4628C39.6721 53.3749 39.6282 53.287 39.6282 53.1844C39.6282 53.0965 39.6721 52.9939 39.7747 52.8766L40.1704 52.4223C39.7161 51.9973 38.4704 50.9128 36.4626 49.1835C35.3635 48.2455 34.5721 47.586 34.0738 47.205L33.5755 47.7766C33.3557 47.7033 33.1652 47.6007 33.0186 47.4688C32.916 47.3809 32.8574 47.2929 32.8574 47.1903C32.8574 47.1024 32.9014 46.9998 33.0039 46.8826" fill="#274981"/>
<path d="M49.4326 42.911C49.0516 42.4127 48.0404 41.123 46.355 39.0713C45.4464 37.9575 44.8308 37.2247 44.5084 36.873C43.2334 38.0161 42.5153 38.6463 42.3541 38.7782C42.1636 38.9247 42.0023 38.998 41.8558 38.998C41.7092 38.998 41.5627 38.8954 41.4161 38.7195C41.211 38.4557 41.0351 38.1333 40.9178 37.7083C41.8558 37.2687 42.9256 36.5652 44.1127 35.5979L47.9671 32.491C48.143 32.3444 48.3042 32.2712 48.4361 32.2565C48.568 32.2565 48.7145 32.3298 48.8611 32.5203C49.1395 32.8574 49.3007 33.2677 49.3594 33.7514C48.3774 34.0005 47.4248 34.5134 46.4722 35.2755L46.3257 35.3928C46.6041 35.7738 47.205 36.5359 48.1136 37.6497C49.7844 39.7015 50.8395 40.9618 51.2499 41.4308L52.1292 40.7273C52.3051 40.8153 52.4516 40.9179 52.5835 41.0644C52.6861 41.1963 52.7447 41.3135 52.7301 41.4015C52.7301 41.4894 52.6715 41.592 52.5542 41.6799L49.1688 44.3912C48.9637 44.2739 48.8024 44.142 48.6705 43.9955C48.5826 43.8929 48.5533 43.7903 48.568 43.7024C48.5826 43.6144 48.6559 43.5119 48.7585 43.4239L49.4033 42.911H49.4326Z" fill="#274981"/>
<path d="M50.4878 30.8642L56.306 27.5375C56.5845 27.3763 56.8043 27.3176 56.9655 27.3323C57.1267 27.347 57.2879 27.4789 57.4345 27.7427C57.6103 28.0504 57.6983 28.4315 57.6836 28.8858C56.5845 29.0323 55.3241 29.516 53.9318 30.3073L53.6241 30.4832C53.8439 30.9082 54.3129 31.7582 55.0603 33.0332L58.2845 31.1867C58.4897 31.3625 58.6655 31.5824 58.7974 31.8168C58.8854 31.9634 58.9147 32.066 58.8854 32.1539C58.8561 32.2272 58.7828 32.3151 58.6362 32.3884L55.6758 34.0884C56.6284 35.7152 57.2147 36.6824 57.4345 37.0195L57.9621 36.7117C59.3983 35.891 60.4388 35.0703 61.0837 34.2643C61.4354 34.4402 61.6992 34.6893 61.8897 35.0117C62.0216 35.2462 62.0363 35.466 61.919 35.6566C61.8018 35.8617 61.4794 36.1109 60.9518 36.4186L55.2801 39.6721C55.0896 39.5256 54.9577 39.379 54.8551 39.2032C54.7819 39.0859 54.7672 38.9833 54.8112 38.8954C54.8405 38.8075 54.9284 38.7195 55.0457 38.6609L55.5146 38.3971C55.2215 37.8402 54.4155 36.4186 53.0818 34.1177C52.3637 32.8867 51.8361 31.9927 51.4844 31.4651L50.7516 31.8755C50.5611 31.7289 50.4292 31.5824 50.3266 31.4065C50.2533 31.2893 50.2387 31.1867 50.268 31.0987C50.2973 31.0108 50.3852 30.9229 50.5025 30.8642" fill="#274981"/>
<path d="M64.2932 29.2082L64.8501 29.003C65.451 28.7832 65.8613 28.5047 66.0958 28.1677C66.3303 27.8306 66.3596 27.4202 66.1691 26.9366C65.9346 26.3064 65.6122 25.9254 65.2018 25.7642C64.7915 25.603 64.3372 25.6176 63.8682 25.8081C63.5751 25.9107 63.3553 26.028 63.1794 26.1452C63.2673 26.4383 63.5604 27.259 64.0734 28.6073L64.3079 29.2228L64.2932 29.2082ZM65.8174 33.1651L66.8139 32.7988C66.9605 32.9307 67.0631 33.0919 67.1217 33.2677C67.1803 33.4289 67.195 33.5462 67.151 33.6341C67.1217 33.722 67.0338 33.7807 66.9019 33.8393L63.0182 35.2755C62.857 35.0997 62.7397 34.9238 62.6811 34.7333C62.6371 34.616 62.6371 34.5134 62.6811 34.4255C62.7251 34.3376 62.813 34.279 62.9596 34.2203L63.6044 33.9858C63.4139 33.3996 62.8423 31.8608 61.9044 29.384C61.4061 28.0504 61.025 27.0832 60.7906 26.5116L59.8673 26.8487C59.7061 26.6728 59.6035 26.4969 59.5302 26.3211C59.4862 26.1892 59.4862 26.0866 59.5302 26.0133C59.5742 25.9254 59.6621 25.8668 59.794 25.8228L63.3846 24.4891C64.8208 23.9616 65.9199 23.771 66.6967 23.9469C67.4588 24.1228 68.001 24.6357 68.3381 25.515C68.7924 26.7168 68.3527 27.8306 67.0191 28.8565C67.4588 28.8711 67.8691 28.9884 68.2502 29.2228C68.6312 29.4573 69.0855 29.8091 69.5985 30.2927C70.1114 30.7763 70.4924 31.0548 70.7269 31.128C70.9614 31.2013 71.2692 31.172 71.6209 31.0401C71.8993 31.4065 71.9873 31.6849 71.8993 31.9048C71.8114 32.1246 71.445 32.3298 70.8295 32.5643C70.1114 32.8281 69.5838 32.9307 69.2467 32.8867C68.9096 32.8281 68.4846 32.4617 67.9717 31.7582C67.4588 31.0548 67.0044 30.5711 66.6088 30.2927C66.2131 30.0142 65.788 29.9556 65.3484 30.1168C65.1139 30.2048 64.9087 30.3073 64.7329 30.4246C65.2458 31.7875 65.6122 32.7108 65.8174 33.1945" fill="#274981"/>
<path d="M71.3278 21.8658L74.4494 21.3382C75.314 22.4667 76.1347 23.5072 76.9261 24.4452C77.7029 25.3978 78.5529 26.5995 79.4468 28.0504L78.8753 24.7236C78.6261 23.3167 78.4356 22.3055 78.3037 21.69L77.483 21.8365C77.3658 21.646 77.2925 21.4408 77.2485 21.2503C77.2192 21.1184 77.2485 21.0158 77.3072 20.9425C77.3658 20.8693 77.4684 20.8253 77.6149 20.796L80.8831 20.2391C81.0003 20.4003 81.0736 20.5762 81.1029 20.752C81.1322 20.9279 81.1176 21.0451 81.0736 21.1184C81.015 21.1917 80.927 21.2503 80.7805 21.265L80.1503 21.3676C80.2382 21.9831 80.3994 22.9943 80.6486 24.4159L81.4839 29.2522C81.5572 29.7065 81.5572 29.9996 81.4839 30.1461C81.396 30.278 81.1322 30.3953 80.6779 30.4686C79.7693 30.6298 79.2563 30.6737 79.1244 30.6298C78.9925 30.5858 78.377 29.941 77.2925 28.6952C76.208 27.4495 75.1528 26.028 74.1269 24.4452C74.6985 27.7573 75.0502 29.7065 75.1821 30.322L75.9442 30.1901C76.0615 30.3513 76.1347 30.5272 76.164 30.703C76.1934 30.8642 76.1787 30.9961 76.1347 31.0694C76.0908 31.1427 75.9882 31.2013 75.8563 31.216L72.6174 31.7729C72.5002 31.5824 72.4123 31.3772 72.3829 31.1867C72.3536 31.0548 72.3829 30.9522 72.4416 30.8789C72.5002 30.8056 72.6028 30.7617 72.7493 30.7323L73.3502 30.6298C73.2769 30.0142 73.0131 28.4021 72.5588 25.7935C72.3097 24.3866 72.1192 23.3753 71.9726 22.7598L71.2252 22.8917C71.1079 22.7012 71.02 22.496 70.9907 22.3055C70.9614 22.1736 70.9907 22.071 71.0493 21.9977C71.1079 21.9245 71.2105 21.8805 71.3571 21.8512" fill="#274981"/>
<path d="M86.8772 25.7495L89.3246 25.7935C88.6065 23.3167 88.2108 22.0857 88.1229 22.0857C88.0349 22.0857 87.6246 23.3021 86.8918 25.7495M88.372 19.9753C89.1927 19.9753 89.6617 20.0193 89.7643 20.0779C89.8669 20.1365 90.3358 21.4262 91.1565 23.9469C91.9772 26.4676 92.5634 28.2116 92.9445 29.1789H93.6333C93.7212 29.3694 93.7505 29.5453 93.7505 29.7358C93.7505 29.9117 93.7066 30.0289 93.648 30.0875C93.5893 30.1608 93.4721 30.1901 93.3402 30.1901L89.5737 30.1315C89.5005 29.9116 89.4565 29.7065 89.4565 29.5013C89.4565 29.3694 89.5005 29.2815 89.5737 29.2082C89.647 29.1496 89.7643 29.1203 89.8962 29.1203H90.2186C90.1453 28.7685 89.9694 28.0651 89.691 27.0099L86.5694 26.9659C86.2763 27.9918 86.1004 28.6806 86.0125 29.0616H86.7159C86.8039 29.2522 86.8332 29.428 86.8332 29.6185C86.8332 29.7944 86.7892 29.9117 86.7306 29.9703C86.672 30.0435 86.5694 30.0729 86.4228 30.0729L83.2133 30.0289C83.14 29.8091 83.0961 29.6039 83.0961 29.3987C83.0961 29.2668 83.14 29.1789 83.2133 29.1056C83.2866 29.047 83.3892 29.0177 83.5357 29.0177H83.9314C84.2978 28.0944 84.8547 26.5702 85.5875 24.4598C86.3349 22.3641 86.8185 21.0745 87.053 20.6348C87.2875 20.1805 87.7418 19.9606 88.3867 19.9753" fill="#274981"/>
<path d="M99.0411 29.941C99.8618 30.0875 100.653 29.9996 101.43 29.6772C101.694 30.0875 101.796 30.4686 101.723 30.8056C101.664 31.128 101.283 31.3186 100.58 31.3772C99.8765 31.4212 99.0704 31.3772 98.1618 31.216C96.6963 30.9522 95.6557 30.4539 95.0549 29.6918C94.454 28.9297 94.3074 27.6694 94.6152 25.9254C94.9523 24.0055 95.6264 22.6719 96.6376 21.9245C97.6489 21.177 98.9385 20.9279 100.507 21.2063C101.533 21.3822 102.236 21.5874 102.602 21.8072C102.969 22.027 103.115 22.3202 103.057 22.7159C102.998 23.0236 102.793 23.3167 102.427 23.6098C101.591 23.0383 100.756 22.6719 99.9204 22.5253C99.217 22.4081 98.6601 22.5546 98.2351 23.009C97.8101 23.4486 97.473 24.3133 97.2532 25.6176C96.9894 27.1564 96.9894 28.2116 97.2532 28.8271C97.5316 29.428 98.1325 29.8091 99.0558 29.9703" fill="#274981"/>
<path d="M105.958 22.5986L109.813 23.7857C109.842 23.9762 109.813 24.1667 109.769 24.3426C109.71 24.5038 109.652 24.6211 109.564 24.665C109.49 24.709 109.373 24.709 109.241 24.665L108.552 24.4598C108.347 25.0461 108.025 26.028 107.6 27.4056C106.808 29.9263 106.325 31.4798 106.164 32.0953L107.102 32.3884C107.131 32.5789 107.102 32.7695 107.058 32.9453C106.999 33.1065 106.94 33.2091 106.852 33.2531C106.764 33.297 106.662 33.297 106.53 33.2531L102.661 32.0513C102.646 31.8169 102.661 31.6117 102.72 31.4212C102.764 31.2893 102.822 31.216 102.91 31.172C102.998 31.1427 103.115 31.1427 103.247 31.172L103.907 31.3772C104.112 30.791 104.625 29.2375 105.416 26.7021C105.841 25.3392 106.134 24.3573 106.296 23.7417L105.358 23.4486C105.343 23.2141 105.358 23.009 105.416 22.8184C105.46 22.6865 105.519 22.5986 105.607 22.5693C105.695 22.54 105.812 22.54 105.944 22.5693" fill="#274981"/>
<path d="M112.656 29.9703C111.982 31.3918 111.703 32.4177 111.835 33.0772C111.953 33.7367 112.348 34.2203 112.978 34.5281C113.653 34.8505 114.253 34.8359 114.766 34.4988C115.294 34.1617 115.822 33.4143 116.364 32.2712C117.053 30.8203 117.346 29.7651 117.214 29.1349C117.082 28.4901 116.701 28.0211 116.041 27.7133C115.367 27.3909 114.766 27.4056 114.253 27.7427C113.74 28.0797 113.198 28.8272 112.656 29.9703ZM110.062 29.5306C110.883 27.8159 111.894 26.7314 113.096 26.2771C114.297 25.8228 115.587 25.94 116.979 26.5849C118.284 27.2004 119.134 27.9771 119.529 28.9004C119.925 29.8237 119.735 31.0987 118.972 32.6962C118.152 34.4109 117.141 35.4954 115.939 35.9497C114.737 36.404 113.433 36.2867 111.996 35.6126C110.721 35.0117 109.886 34.2496 109.505 33.3117C109.124 32.3738 109.3 31.128 110.077 29.516" fill="#274981"/>
<path d="M123.941 30.4099L126.491 32.2712C126.271 33.6634 126.095 34.9824 125.948 36.1988C125.802 37.4152 125.523 38.8514 125.084 40.5075L127.092 37.7816C127.942 36.6238 128.542 35.7885 128.894 35.2755L128.22 34.7919C128.279 34.5721 128.367 34.3815 128.484 34.2203C128.572 34.1031 128.66 34.0591 128.748 34.0445C128.85 34.0445 128.953 34.0738 129.07 34.1617L131.752 36.1109C131.708 36.3014 131.635 36.4773 131.532 36.6238C131.43 36.7704 131.327 36.8436 131.239 36.8583C131.151 36.873 131.048 36.8436 130.931 36.7557L130.418 36.3747C130.037 36.873 129.407 37.6937 128.557 38.8514L125.626 42.8084C125.348 43.1748 125.128 43.38 124.967 43.4239C124.805 43.4532 124.542 43.336 124.16 43.0722C123.413 42.5299 123.017 42.1929 122.959 42.0756C122.9 41.9437 122.959 41.0644 123.091 39.423C123.237 37.7816 123.53 36.0376 123.985 34.2203C121.977 36.9316 120.804 38.5437 120.453 39.0566L121.068 39.5109C121.024 39.7014 120.951 39.8773 120.848 40.0239C120.746 40.1558 120.643 40.2437 120.555 40.2584C120.467 40.273 120.365 40.2584 120.247 40.1704L117.595 38.2506C117.653 38.0307 117.741 37.8256 117.859 37.679C117.932 37.5764 118.02 37.5178 118.122 37.5178C118.21 37.5178 118.328 37.5471 118.445 37.635L118.943 38.0014C119.339 37.5178 120.321 36.1988 121.904 34.0738C122.754 32.916 123.354 32.0806 123.706 31.5531L123.091 31.1134C123.149 30.8936 123.237 30.703 123.354 30.5418C123.442 30.4246 123.53 30.3806 123.618 30.366C123.706 30.366 123.823 30.3953 123.941 30.4832" fill="#274981"/>
<path d="M131.898 44.2007L133.569 45.974C134.859 43.7463 135.489 42.6032 135.416 42.5446C135.357 42.486 134.185 43.0282 131.898 44.2153M137.116 41.2549C137.673 41.8558 137.98 42.2075 138.01 42.3248C138.039 42.442 137.424 43.6731 136.163 46.0033C134.903 48.3335 134.053 49.9749 133.613 50.9128L134.082 51.4111C134.009 51.587 133.906 51.7482 133.774 51.8654C133.642 51.9827 133.54 52.0413 133.452 52.0413C133.364 52.0413 133.261 51.9827 133.159 51.8801L130.58 49.1542C130.682 48.949 130.799 48.7731 130.946 48.6412C131.048 48.5533 131.136 48.5093 131.239 48.524C131.327 48.524 131.43 48.5973 131.532 48.6999L131.752 48.9343C131.957 48.6412 132.353 48.0257 132.91 47.0878L130.77 44.8162C129.832 45.3145 129.187 45.6662 128.865 45.8714L129.348 46.3843C129.275 46.5602 129.173 46.7214 129.041 46.8386C128.909 46.9559 128.806 47.0145 128.704 47.0145C128.616 47.0145 128.513 46.9705 128.425 46.8679L126.227 44.5377C126.329 44.3325 126.447 44.1567 126.593 44.0248C126.696 43.9369 126.784 43.8929 126.886 43.9075C126.974 43.9075 127.077 43.9808 127.179 44.0834L127.458 44.3765C128.396 43.9808 129.876 43.3213 131.913 42.398C133.95 41.4747 135.225 40.9325 135.709 40.7859C136.207 40.6394 136.676 40.8006 137.116 41.2696" fill="#274981"/>
<path d="M136.456 54.6206L136.559 54.7672C137.482 56.1155 138.376 57.0827 139.241 57.669C139.094 58.0207 138.86 58.3138 138.552 58.519C138.332 58.6655 138.112 58.6948 137.893 58.5922C137.687 58.4897 137.409 58.1819 137.057 57.6836L133.642 52.6715C133.774 52.4809 133.921 52.3197 134.082 52.2172C134.199 52.1439 134.287 52.1146 134.39 52.1439C134.478 52.1732 134.566 52.2465 134.654 52.3637L134.961 52.8034C135.504 52.4809 136.881 51.5723 139.094 50.1068C140.296 49.3154 141.146 48.7292 141.644 48.3481L141.175 47.6593C141.307 47.4688 141.454 47.3222 141.615 47.205C141.732 47.1317 141.835 47.1024 141.923 47.1317C142.011 47.161 142.099 47.2343 142.187 47.3516L144.356 50.5464C144.253 50.7223 144.121 50.8542 143.975 50.9568C143.828 51.0594 143.711 51.0887 143.623 51.074C143.535 51.0594 143.447 51.0008 143.374 50.8835L142.978 50.2973C142.436 50.6197 141.571 51.1913 140.369 51.9973C138.156 53.4629 136.867 54.3568 136.486 54.6353" fill="#274981"/>
<path d="M144.986 63.7216L145.865 65.9786C147.902 64.3958 148.913 63.5604 148.869 63.4725C148.84 63.3846 147.536 63.4725 144.971 63.7216M150.921 62.9009C151.214 63.663 151.361 64.1027 151.346 64.2199C151.346 64.3372 150.306 65.2458 148.254 66.9605C146.202 68.6605 144.795 69.8622 144.048 70.5657L144.297 71.2105C144.165 71.3571 144.004 71.4597 143.828 71.5183C143.667 71.5769 143.55 71.5916 143.462 71.5623C143.374 71.533 143.3 71.445 143.256 71.3131L141.893 67.8251C142.069 67.6639 142.245 67.5613 142.436 67.4881C142.553 67.4441 142.67 67.4441 142.743 67.4881C142.831 67.532 142.89 67.62 142.949 67.7519L143.066 68.045C143.374 67.8544 143.96 67.4148 144.839 66.7553L143.711 63.8682C142.641 63.9854 141.923 64.0734 141.556 64.1466L141.806 64.7915C141.674 64.938 141.512 65.0406 141.337 65.0992C141.175 65.1579 141.058 65.1725 140.97 65.1432C140.882 65.1139 140.809 65.026 140.765 64.8941L139.607 61.919C139.783 61.7578 139.959 61.6552 140.149 61.5819C140.267 61.538 140.384 61.538 140.457 61.5819C140.545 61.6259 140.604 61.7138 140.662 61.8457L140.809 62.2121C141.82 62.1975 143.447 62.1242 145.689 62.0216C147.932 61.9044 149.309 61.875 149.822 61.9337C150.335 61.9776 150.701 62.3001 150.936 62.9009" fill="#274981"/>
<path d="M145.294 75.0649L145.323 75.2408C145.66 76.8382 146.129 78.0693 146.7 78.9339C146.422 79.2124 146.1 79.3882 145.733 79.4615C145.469 79.5201 145.264 79.4615 145.103 79.2856C144.942 79.1098 144.81 78.7287 144.678 78.1279L143.403 72.2071C143.593 72.0752 143.799 71.9873 143.989 71.9433C144.121 71.914 144.224 71.9433 144.297 71.9873C144.37 72.0459 144.429 72.1485 144.458 72.2804L144.575 72.808C145.206 72.7054 146.818 72.383 149.426 71.8407C150.833 71.5476 151.844 71.3131 152.46 71.1519L152.284 70.3459C152.475 70.214 152.665 70.126 152.87 70.0967C153.002 70.0674 153.105 70.0967 153.193 70.1407C153.266 70.1993 153.325 70.3019 153.354 70.4338L154.16 74.2002C153.999 74.3175 153.823 74.3907 153.647 74.4347C153.471 74.464 153.354 74.464 153.266 74.4201C153.193 74.3761 153.134 74.2735 153.105 74.1416L152.958 73.4528C152.343 73.5554 151.317 73.7606 149.91 74.0537C147.301 74.5959 145.777 74.933 145.308 75.0649" fill="#274981"/>
<path d="M155.113 79.8132L155.523 86.4668C155.538 86.7746 155.508 87.009 155.42 87.1409C155.332 87.2875 155.142 87.3608 154.834 87.3754C154.468 87.4047 154.087 87.3021 153.691 87.0823C154.043 86.0271 154.175 84.7081 154.072 83.1107V82.759C153.574 82.759 152.592 82.8029 151.112 82.8909L151.332 86.5694C151.082 86.672 150.804 86.7306 150.526 86.7452C150.364 86.7452 150.247 86.7452 150.188 86.672C150.13 86.6133 150.086 86.5108 150.086 86.3349L149.881 82.9495C147.99 83.0667 146.847 83.1547 146.466 83.1986L146.51 83.7995C146.613 85.4409 146.891 86.7306 147.331 87.6685C147.023 87.903 146.671 88.0349 146.305 88.0496C146.041 88.0642 145.836 87.9763 145.704 87.7858C145.572 87.5953 145.484 87.1996 145.455 86.584L145.044 80.0917C145.25 79.9891 145.455 79.9305 145.66 79.9158C145.792 79.9158 145.894 79.9451 145.953 80.0038C146.012 80.077 146.056 80.1796 146.07 80.3262L146.1 80.8538C146.73 80.8538 148.386 80.7658 151.038 80.6046C152.475 80.5167 153.515 80.4434 154.131 80.3702L154.087 79.5348C154.292 79.4322 154.497 79.3736 154.702 79.3589C154.834 79.3589 154.937 79.3882 155.01 79.4469C155.069 79.5201 155.113 79.6227 155.127 79.7693" fill="#274981"/>
<path d="M155.626 90.5263L155.113 94.4833C154.145 94.5859 153.178 94.7031 152.211 94.8497C151.244 94.9816 150.247 95.1135 149.221 95.2307C148.195 95.348 147.682 95.4212 147.668 95.4652C147.668 95.4945 148.576 95.8756 150.408 96.579C152.24 97.2825 153.662 97.7954 154.658 98.1325L154.175 101.943C153.984 102.002 153.794 102.016 153.618 102.002C153.442 101.972 153.325 101.928 153.266 101.855C153.207 101.782 153.193 101.679 153.207 101.547L153.281 100.99C152.46 100.888 151.068 100.756 149.119 100.595C147.169 100.433 145.88 100.345 145.25 100.316L145.162 101.005C144.971 101.064 144.795 101.078 144.605 101.064C144.429 101.049 144.312 100.99 144.253 100.917C144.194 100.844 144.165 100.741 144.194 100.595L144.619 97.2825C144.839 97.2238 145.059 97.2092 145.25 97.2385C145.381 97.2532 145.469 97.2971 145.528 97.3851C145.587 97.473 145.601 97.5756 145.572 97.7075L145.543 97.9713C146.481 98.1178 148.782 98.367 152.431 98.704C150.877 98.1325 149.529 97.5902 148.386 97.092C147.243 96.5937 146.525 96.2273 146.231 96.0075C145.938 95.7876 145.821 95.4212 145.88 94.923C145.982 94.1755 146.056 93.7652 146.114 93.6919C146.173 93.6186 146.803 93.4574 148.005 93.2229C149.207 92.9884 150.965 92.7246 153.295 92.4169C149.617 91.9333 147.301 91.6402 146.363 91.5522L146.29 92.1091C146.1 92.1677 145.924 92.1824 145.733 92.1677C145.557 92.1531 145.44 92.0945 145.381 92.0212C145.323 91.9479 145.294 91.8453 145.323 91.6988L145.719 88.6651C145.938 88.6065 146.158 88.5918 146.363 88.6065C146.495 88.6211 146.583 88.6651 146.642 88.753C146.7 88.8263 146.715 88.9436 146.686 89.0901L146.627 89.5591C147.243 89.691 148.518 89.9108 150.438 90.2479C152.357 90.585 153.735 90.8048 154.556 90.8927L154.658 90.072C154.878 90.0134 155.098 89.9987 155.289 90.0281C155.42 90.0427 155.523 90.0867 155.567 90.1746C155.626 90.2479 155.64 90.3651 155.611 90.5117" fill="#274981"/>
<path d="M153.618 108.362L154.497 111.19C153.94 111.601 153.471 111.747 153.105 111.615C152.563 111.425 152.445 110.414 152.782 108.538L153.618 108.347V108.362ZM146.935 105.973L146.144 108.259C148.738 108.347 150.042 108.347 150.071 108.259C150.1 108.171 149.06 107.409 146.935 105.958M152.02 109.124C151.757 109.901 151.581 110.326 151.493 110.414C151.405 110.502 150.027 110.531 147.36 110.531C144.693 110.531 142.831 110.546 141.791 110.604L141.571 111.249C141.381 111.264 141.19 111.249 141.014 111.19C140.853 111.132 140.75 111.073 140.706 110.985C140.662 110.897 140.662 110.795 140.706 110.663L141.923 107.131C142.157 107.131 142.362 107.146 142.553 107.219C142.685 107.263 142.758 107.321 142.787 107.409C142.817 107.497 142.817 107.615 142.773 107.746L142.67 108.054C143.037 108.098 143.755 108.142 144.854 108.201L145.865 105.27C144.971 104.683 144.37 104.288 144.033 104.112L143.813 104.771C143.623 104.786 143.432 104.771 143.256 104.713C143.095 104.654 142.993 104.596 142.949 104.508C142.905 104.42 142.905 104.317 142.949 104.185L143.989 101.166C144.224 101.166 144.429 101.181 144.619 101.254C144.751 101.298 144.825 101.357 144.854 101.445C144.883 101.533 144.883 101.635 144.839 101.782L144.707 102.148C145.499 102.778 146.788 103.775 148.576 105.108C150.364 106.457 151.449 107.307 151.801 107.673C152.167 108.04 152.24 108.523 152.02 109.139" fill="#274981"/>
<path d="M148.899 116.789L147.331 119.515C145.909 119.471 144.575 119.441 143.33 119.427C142.099 119.427 140.618 119.31 138.918 119.075L141.879 120.746C143.139 121.449 144.033 121.947 144.605 122.226L145.015 121.508C145.25 121.537 145.44 121.61 145.616 121.698C145.733 121.772 145.806 121.845 145.821 121.947C145.836 122.035 145.821 122.153 145.748 122.27L144.106 125.128C143.901 125.113 143.725 125.054 143.564 124.966C143.418 124.879 143.315 124.791 143.3 124.703C143.271 124.615 143.3 124.512 143.374 124.38L143.696 123.823C143.154 123.501 142.26 122.988 140.999 122.27L136.691 119.837C136.28 119.603 136.061 119.412 136.002 119.266C135.943 119.119 136.031 118.841 136.266 118.43C136.72 117.639 137.013 117.199 137.13 117.126C137.248 117.053 138.142 116.994 139.798 116.95C141.454 116.906 143.227 116.994 145.118 117.228C142.172 115.572 140.428 114.59 139.871 114.312L139.49 114.972C139.299 114.972 139.109 114.898 138.948 114.81C138.801 114.722 138.713 114.634 138.684 114.547C138.655 114.459 138.684 114.356 138.743 114.239L140.369 111.41C140.604 111.44 140.809 111.498 140.985 111.601C141.102 111.659 141.161 111.747 141.19 111.835C141.205 111.923 141.19 112.04 141.102 112.158L140.794 112.685C141.322 113.022 142.758 113.843 145.074 115.147C146.334 115.851 147.243 116.349 147.8 116.628L148.181 115.968C148.415 115.997 148.62 116.056 148.781 116.159C148.899 116.232 148.972 116.305 148.987 116.393C149.001 116.481 148.987 116.598 148.899 116.716" fill="#274981"/>
<path d="M55.1922 142.509L55.5732 142.714C56.0862 143.007 56.5405 143.125 56.9069 143.095C57.2732 143.066 57.5664 142.875 57.7569 142.509C57.9914 142.084 58.05 141.718 57.9181 141.381C57.7862 141.043 57.4931 140.765 57.0534 140.501C56.8482 140.384 56.6724 140.311 56.5112 140.252C56.35 140.487 55.9982 141.087 55.456 142.025L55.1922 142.48V142.509ZM53.7266 145.176L54.3715 145.528C54.3715 145.631 54.3275 145.733 54.2835 145.821C54.2396 145.894 54.1956 145.938 54.1517 145.953C54.1077 145.953 54.0491 145.953 53.9758 145.909L51.8801 144.737C51.8947 144.619 51.9387 144.517 51.9827 144.429C52.012 144.37 52.0559 144.326 52.0999 144.326C52.1439 144.326 52.2025 144.326 52.2758 144.37L52.6861 144.59C52.9499 144.194 53.5508 143.154 54.518 141.454C55.031 140.545 55.3974 139.886 55.6025 139.461L55.0896 139.168C55.1042 139.05 55.1482 138.948 55.1922 138.86C55.2215 138.801 55.2655 138.757 55.3094 138.757C55.3534 138.757 55.412 138.757 55.4853 138.801L57.4051 139.871C58.3138 140.384 58.8853 140.868 59.1345 141.322C59.3836 141.791 59.3543 142.289 59.0466 142.817C58.5776 143.637 57.7715 143.916 56.6138 143.667C56.8482 143.916 56.9948 144.194 57.0388 144.517C57.0827 144.839 57.0827 145.279 57.0388 145.806C56.9948 146.334 56.9948 146.686 57.0534 146.847C57.112 147.008 57.2439 147.14 57.4491 147.243C57.3905 147.492 57.3026 147.624 57.1853 147.668C57.0681 147.697 56.8482 147.624 56.5405 147.463C56.1888 147.272 55.9543 147.081 55.8517 146.906C55.7491 146.73 55.7784 146.305 55.925 145.66C56.0715 145 56.1155 144.517 56.0568 144.18C55.9982 143.843 55.7931 143.579 55.4413 143.388C55.2508 143.286 55.0603 143.198 54.8698 143.125C54.2982 144.15 53.9172 144.839 53.7413 145.191" fill="#274981"/>
<path d="M61.2888 141.893L63.3846 142.846C63.3846 142.949 63.3553 143.051 63.3113 143.139C63.282 143.212 63.238 143.256 63.194 143.286C63.1501 143.3 63.0915 143.286 63.0035 143.256L62.5785 143.066C62.3587 143.491 62.0216 144.18 61.5673 145.162C60.7759 146.891 60.2776 147.975 60.1164 148.415L60.688 148.679C60.688 148.782 60.6587 148.884 60.6147 148.972C60.5854 149.045 60.5414 149.089 60.4974 149.119C60.4535 149.148 60.3949 149.119 60.3069 149.089L58.2112 148.137C58.2112 148.019 58.2405 147.902 58.2845 147.814C58.3138 147.756 58.3578 147.712 58.4017 147.697C58.4457 147.697 58.5043 147.697 58.5776 147.726L59.0026 147.917C59.2224 147.507 59.7354 146.407 60.5561 144.634C60.9957 143.681 61.2888 142.993 61.4647 142.553L60.8931 142.289C60.8931 142.172 60.9225 142.055 60.9664 141.967C60.9957 141.908 61.0397 141.864 61.0837 141.85C61.1276 141.835 61.1863 141.85 61.2595 141.879" fill="#274981"/>
<path d="M68.1915 144.678L69.9355 145.308C69.9355 145.411 69.9355 145.513 69.8916 145.601C69.8622 145.675 69.8329 145.733 69.789 145.748C69.745 145.762 69.6864 145.762 69.5985 145.748L69.3786 145.675C68.9683 146.188 68.2502 147.125 67.195 148.488C66.1544 149.851 65.5243 150.628 65.3337 150.775C65.1432 150.936 64.8794 150.951 64.557 150.848C64.1906 150.716 63.9854 150.628 63.9561 150.584C63.9268 150.54 63.9561 149.544 64.0147 147.58C64.0734 145.616 64.1027 144.341 64.0587 143.755L63.6777 143.623C63.6777 143.506 63.6777 143.388 63.7216 143.3C63.7509 143.227 63.7803 143.198 63.8242 143.169C63.8682 143.154 63.9268 143.169 64.0001 143.169L65.9493 143.857C65.9493 143.975 65.9493 144.062 65.9053 144.15C65.876 144.224 65.8467 144.282 65.8027 144.297C65.7587 144.312 65.7001 144.312 65.6122 144.297L65.3777 144.209C65.3191 144.649 65.2458 145.689 65.1725 147.331C65.0846 148.972 65.0699 149.807 65.1139 149.822C65.1579 149.837 65.6562 149.177 66.5794 147.858C67.5174 146.525 68.0743 145.66 68.2795 145.25L67.8545 145.103C67.8545 144.986 67.8545 144.869 67.8984 144.781C67.9277 144.707 67.957 144.663 68.001 144.649C68.045 144.634 68.1036 144.649 68.1915 144.649" fill="#274981"/>
<path d="M70.639 145.425L72.8666 146.026C72.8666 146.129 72.8666 146.231 72.8519 146.334C72.8373 146.422 72.7933 146.466 72.7494 146.495C72.7054 146.525 72.6468 146.525 72.5588 146.495L72.1045 146.378C71.958 146.832 71.7381 147.58 71.4597 148.62C70.9614 150.452 70.6683 151.61 70.5657 152.064L71.1812 152.226C71.1812 152.328 71.1812 152.431 71.1666 152.533C71.1519 152.621 71.108 152.665 71.064 152.694C71.02 152.724 70.9614 152.724 70.8735 152.694L68.6458 152.094C68.6458 151.976 68.6458 151.859 68.6605 151.771C68.6752 151.698 68.7045 151.654 68.7484 151.639C68.7924 151.625 68.851 151.625 68.939 151.639L69.3933 151.757C69.5398 151.302 69.8769 150.144 70.3752 148.269C70.639 147.257 70.8295 146.525 70.9321 146.07L70.3166 145.909C70.3166 145.792 70.3166 145.675 70.3312 145.587C70.3459 145.513 70.3752 145.469 70.4191 145.455C70.4631 145.44 70.5217 145.425 70.6097 145.455" fill="#274981"/>
<path d="M73.9511 146.305L78.2598 147.111C78.4503 147.14 78.5822 147.199 78.6408 147.257C78.6994 147.331 78.7141 147.433 78.6848 147.594C78.6408 147.8 78.5382 147.99 78.377 148.195C77.7908 147.814 76.9408 147.536 75.827 147.331L75.3873 147.243C75.2994 147.609 75.1382 148.357 74.933 149.485L77.571 149.969C77.5856 150.1 77.5856 150.247 77.571 150.394C77.5563 150.482 77.527 150.54 77.483 150.569C77.4391 150.599 77.3805 150.599 77.2779 150.569L74.8158 150.115C74.552 151.551 74.3908 152.431 74.3468 152.768L75.0503 152.9C76.1201 153.105 76.9848 153.134 77.6443 153.017C77.7175 153.222 77.7322 153.413 77.7029 153.618C77.6736 153.764 77.6003 153.867 77.4977 153.911C77.3805 153.955 77.1753 153.955 76.8822 153.911L72.5149 153.105C72.4856 152.988 72.4856 152.87 72.5149 152.768C72.5149 152.694 72.5588 152.651 72.6028 152.636C72.6468 152.607 72.7054 152.607 72.7787 152.621L73.1451 152.694C73.2623 152.226 73.4968 151.053 73.8485 149.133C74.039 148.107 74.1709 147.36 74.2296 146.906L73.702 146.803C73.6727 146.686 73.6727 146.569 73.702 146.481C73.702 146.407 73.7459 146.363 73.7899 146.334C73.8339 146.305 73.8925 146.305 73.9804 146.319" fill="#274981"/>
<path d="M81.0883 150.833L81.5133 150.863C82.0995 150.907 82.5685 150.848 82.8909 150.657C83.2133 150.482 83.3892 150.188 83.4185 149.778C83.4625 149.294 83.3452 148.943 83.0961 148.694C82.8323 148.444 82.4512 148.298 81.9383 148.254C81.7038 148.239 81.4986 148.239 81.3374 148.254C81.2935 148.547 81.2202 149.221 81.1323 150.306L81.0883 150.833ZM80.8831 153.867L81.6159 153.926C81.6452 154.028 81.6598 154.131 81.6598 154.219C81.6598 154.307 81.6305 154.365 81.5866 154.395C81.5573 154.424 81.484 154.438 81.4107 154.424L79.0072 154.233C78.9779 154.116 78.9633 154.013 78.9633 153.911C78.9633 153.838 78.9926 153.794 79.0365 153.764C79.0805 153.735 79.1391 153.72 79.2124 153.735L79.6814 153.779C79.7546 153.31 79.8572 152.108 80.0184 150.174C80.1064 149.133 80.1503 148.386 80.165 147.917L79.5788 147.873C79.5495 147.756 79.5348 147.653 79.5495 147.55C79.5495 147.477 79.5788 147.433 79.6081 147.404C79.6521 147.375 79.7107 147.36 79.784 147.375L81.9823 147.55C83.0228 147.638 83.7409 147.844 84.1659 148.151C84.5763 148.474 84.7668 148.943 84.7082 149.544C84.6349 150.482 84.0047 151.068 82.8469 151.317C83.1694 151.434 83.4038 151.639 83.5944 151.918C83.7702 152.196 83.9607 152.592 84.1366 153.09C84.3125 153.588 84.4737 153.911 84.5909 154.028C84.7082 154.145 84.884 154.219 85.1185 154.233C85.1625 154.482 85.1478 154.644 85.0452 154.732C84.9427 154.805 84.7228 154.834 84.3711 154.805C83.9607 154.776 83.6823 154.702 83.5064 154.57C83.3452 154.453 83.184 154.057 83.0521 153.413C82.9056 152.753 82.7443 152.284 82.5538 152.02C82.3633 151.742 82.0555 151.581 81.6598 151.551C81.4547 151.537 81.2348 151.537 81.0297 151.551C80.9417 152.709 80.8831 153.501 80.8685 153.896" fill="#274981"/>
<path d="M87.9763 151.801L89.9108 151.757C89.2367 149.807 88.8849 148.84 88.841 148.84C88.797 148.84 88.5039 149.822 87.991 151.801M88.9289 147.682C89.3099 147.682 89.5298 147.682 89.5884 147.712C89.647 147.741 90.0134 148.679 90.6875 150.525C91.3763 152.372 91.8307 153.559 92.0798 154.101H92.5341C92.5781 154.189 92.6074 154.292 92.6074 154.38C92.6074 154.468 92.6074 154.526 92.5634 154.556C92.5341 154.585 92.4755 154.614 92.3876 154.614L90.2625 154.673C90.2186 154.556 90.1893 154.453 90.1893 154.351C90.1893 154.277 90.2039 154.233 90.2332 154.189C90.2625 154.16 90.3212 154.145 90.4091 154.131H90.6875C90.6143 153.823 90.4384 153.251 90.1599 152.401L87.8444 152.46C87.6246 153.31 87.4927 153.896 87.4634 154.204H87.947C87.9909 154.292 88.0203 154.395 88.0203 154.482C88.0203 154.57 88.0203 154.629 87.9763 154.658C87.947 154.688 87.8884 154.717 87.8004 154.717L85.9099 154.761C85.8659 154.644 85.8366 154.541 85.8366 154.438C85.8366 154.365 85.8513 154.321 85.8806 154.277C85.9099 154.248 85.9685 154.233 86.0564 154.219H86.3495C86.5547 153.588 86.9065 152.475 87.3901 150.848C87.8737 149.221 88.1668 148.283 88.2841 148.049C88.4013 147.8 88.6211 147.668 88.9435 147.668" fill="#274981"/>
<path d="M95.5678 147.345L97.6342 146.95C97.9127 147.492 98.279 148.195 98.7334 149.031C99.2023 149.866 99.5687 150.555 99.8325 151.082C100.111 151.61 100.258 151.874 100.272 151.874C100.301 151.874 100.375 151.112 100.521 149.588C100.668 148.078 100.756 146.994 100.77 146.334L102.808 145.938C102.866 146.026 102.91 146.129 102.925 146.217C102.939 146.305 102.925 146.363 102.91 146.407C102.881 146.451 102.822 146.481 102.749 146.495L102.412 146.554C102.514 147.169 102.72 148.166 103.027 149.558C103.335 150.936 103.54 151.859 103.672 152.313L104.156 152.226C104.214 152.313 104.258 152.416 104.273 152.504C104.288 152.592 104.273 152.651 104.258 152.694C104.229 152.738 104.17 152.768 104.083 152.782L102.104 153.163C102.045 153.061 102.002 152.958 101.972 152.856C101.972 152.782 101.972 152.738 102.001 152.694C102.031 152.651 102.089 152.636 102.163 152.607L102.456 152.548C102.368 151.962 102.016 150.203 101.386 147.272C101.313 148.327 101.21 149.397 101.078 150.496C100.932 151.595 100.829 152.255 100.756 152.46C100.683 152.665 100.521 152.797 100.272 152.841C99.9204 152.914 99.7153 152.929 99.6713 152.914C99.6273 152.9 99.2903 152.357 98.6601 151.302C98.0299 150.247 97.4583 149.177 96.9161 148.093C97.4876 151.053 97.8394 152.812 97.9713 153.398L98.4402 153.31C98.4989 153.398 98.5428 153.501 98.5575 153.588C98.5721 153.676 98.5575 153.735 98.5428 153.779C98.5135 153.823 98.4549 153.852 98.3816 153.867L96.535 154.219C96.4764 154.116 96.4325 154.013 96.4178 153.911C96.4178 153.838 96.4178 153.794 96.4471 153.75C96.4764 153.706 96.535 153.691 96.6083 153.676L96.9747 153.603C96.9161 153.134 96.7695 152.196 96.535 150.804C96.3006 149.412 96.11 148.4 95.9928 147.8L95.4799 147.902C95.4212 147.8 95.3773 147.697 95.3626 147.594C95.3626 147.521 95.3626 147.477 95.3919 147.433C95.4212 147.389 95.4798 147.375 95.5531 147.345" fill="#274981"/>
<path d="M106.618 148.957L108.45 148.357C107.248 146.686 106.618 145.85 106.574 145.865C106.53 145.865 106.545 146.906 106.618 148.943M106.325 144.737C106.691 144.619 106.911 144.561 106.955 144.575C107.014 144.575 107.644 145.381 108.831 146.95C110.018 148.532 110.809 149.529 111.19 149.969L111.615 149.837C111.689 149.925 111.733 150.013 111.762 150.101C111.791 150.188 111.791 150.247 111.762 150.291C111.747 150.335 111.689 150.364 111.601 150.394L109.578 151.053C109.505 150.951 109.446 150.863 109.417 150.775C109.388 150.701 109.402 150.657 109.417 150.613C109.446 150.569 109.49 150.54 109.564 150.511L109.827 150.423C109.666 150.159 109.329 149.661 108.816 148.928L106.618 149.646C106.662 150.526 106.706 151.126 106.75 151.434L107.204 151.288C107.277 151.376 107.321 151.463 107.351 151.551C107.38 151.639 107.38 151.698 107.351 151.742C107.336 151.786 107.277 151.815 107.19 151.844L105.402 152.431C105.328 152.328 105.27 152.24 105.24 152.152C105.211 152.079 105.226 152.035 105.24 151.991C105.27 151.947 105.314 151.918 105.387 151.888L105.665 151.801C105.68 151.141 105.695 149.969 105.68 148.283C105.68 146.598 105.68 145.616 105.724 145.338C105.768 145.074 105.944 144.883 106.252 144.781" fill="#274981"/>
<path d="M114.62 142.099C114.561 142.817 114.488 144.37 114.415 146.715C114.693 147.345 114.942 147.873 115.147 148.298L115.836 147.99C115.924 148.063 115.983 148.151 116.012 148.239C116.041 148.313 116.056 148.386 116.041 148.43C116.027 148.474 115.968 148.518 115.895 148.547L113.579 149.558C113.491 149.47 113.433 149.382 113.389 149.294C113.359 149.236 113.359 149.177 113.389 149.133C113.403 149.089 113.462 149.045 113.535 149.016L114.048 148.796C113.887 148.356 113.667 147.844 113.418 147.272C111.484 145.675 110.238 144.663 109.681 144.268L109.315 144.429C109.227 144.341 109.168 144.253 109.124 144.165C109.095 144.106 109.095 144.048 109.124 144.004C109.139 143.96 109.197 143.916 109.271 143.887L111.161 143.066C111.234 143.139 111.293 143.227 111.337 143.315C111.366 143.388 111.381 143.447 111.366 143.506C111.352 143.55 111.308 143.593 111.22 143.623L110.985 143.725C111.308 144.077 111.835 144.59 112.583 145.279C113.33 145.968 113.711 146.29 113.755 146.275C113.784 146.261 113.784 145.777 113.755 144.81C113.711 143.843 113.667 143.11 113.579 142.597L113.169 142.773C113.081 142.685 113.022 142.597 112.978 142.509C112.949 142.45 112.949 142.392 112.978 142.348C112.993 142.304 113.052 142.26 113.125 142.231L114.825 141.483C114.898 141.556 114.957 141.644 115.001 141.732C115.03 141.806 115.045 141.864 115.03 141.923C115.015 141.967 114.972 142.011 114.884 142.04L114.664 142.128L114.62 142.099Z" fill="#274981"/>
<path d="M118.181 144.15L119.866 143.212C118.357 141.806 117.58 141.117 117.536 141.131C117.492 141.161 117.712 142.157 118.181 144.15ZM117.067 140.076C117.404 139.886 117.595 139.798 117.668 139.798C117.741 139.798 118.489 140.457 119.969 141.776C121.449 143.095 122.416 143.931 122.885 144.297L123.281 144.077C123.369 144.15 123.428 144.224 123.486 144.312C123.53 144.385 123.545 144.444 123.53 144.487C123.53 144.531 123.472 144.575 123.398 144.619L121.537 145.645C121.435 145.572 121.376 145.484 121.317 145.396C121.288 145.337 121.273 145.279 121.288 145.235C121.303 145.191 121.347 145.147 121.42 145.103L121.654 144.971C121.449 144.737 121.024 144.312 120.365 143.696L118.342 144.825C118.547 145.689 118.709 146.261 118.826 146.554L119.236 146.319C119.324 146.393 119.383 146.466 119.441 146.554C119.485 146.627 119.5 146.686 119.485 146.73C119.485 146.774 119.427 146.818 119.353 146.862L117.712 147.77C117.624 147.682 117.551 147.609 117.507 147.521C117.478 147.463 117.463 147.404 117.478 147.36C117.492 147.316 117.536 147.272 117.609 147.228L117.873 147.081C117.771 146.437 117.536 145.279 117.199 143.623C116.862 141.967 116.686 140.999 116.672 140.721C116.672 140.443 116.789 140.237 117.082 140.076" fill="#274981"/>
<path d="M100.082 125.142H100.214C100.375 125.142 100.492 125.113 100.595 125.04C100.683 124.967 100.741 124.879 100.741 124.732C100.741 124.585 100.697 124.483 100.624 124.41C100.536 124.336 100.433 124.307 100.301 124.307C100.228 124.307 100.17 124.307 100.111 124.322C100.111 124.424 100.111 124.629 100.111 124.952V125.128L100.082 125.142ZM100.082 126.095H100.243C100.243 126.095 100.272 126.168 100.272 126.212C100.272 126.242 100.272 126.271 100.258 126.271C100.258 126.271 100.228 126.285 100.199 126.285H99.4661C99.4661 126.285 99.4368 126.198 99.4368 126.154C99.4368 126.124 99.4368 126.11 99.4515 126.095C99.4515 126.095 99.4808 126.08 99.5101 126.08H99.6127C99.6127 125.934 99.6127 125.553 99.6127 124.937C99.6127 124.615 99.6127 124.366 99.6127 124.219H99.4661C99.4661 124.219 99.4368 124.131 99.4368 124.087C99.4368 124.058 99.4368 124.043 99.4515 124.029C99.4515 124.029 99.4808 124.014 99.5101 124.014H100.243C100.565 124.014 100.814 124.058 100.961 124.16C101.108 124.248 101.181 124.395 101.181 124.6C101.181 124.893 100.99 125.098 100.624 125.23C100.741 125.26 100.829 125.318 100.902 125.406C100.976 125.494 101.034 125.611 101.093 125.758C101.152 125.904 101.21 126.007 101.239 126.036C101.269 126.066 101.327 126.095 101.401 126.095C101.43 126.183 101.415 126.242 101.401 126.271C101.371 126.3 101.298 126.315 101.195 126.315C101.034 126.315 100.932 126.3 100.873 126.256C100.814 126.227 100.756 126.095 100.697 125.89C100.639 125.685 100.58 125.538 100.521 125.465C100.463 125.392 100.375 125.348 100.287 125.348C100.228 125.348 100.155 125.348 100.096 125.362C100.096 125.699 100.096 125.934 100.096 126.066M100.301 123.56C99.8032 123.56 99.4368 123.706 99.1877 123.999C98.9385 124.292 98.8213 124.717 98.8213 125.289C98.8213 125.787 98.9532 126.168 99.217 126.432C99.4808 126.696 99.8911 126.828 100.433 126.828C100.917 126.828 101.298 126.681 101.533 126.388C101.782 126.095 101.899 125.67 101.899 125.098C101.899 124.6 101.767 124.219 101.503 123.955C101.239 123.691 100.829 123.56 100.287 123.56M100.463 123.266C101.078 123.266 101.533 123.413 101.84 123.721C102.148 124.029 102.295 124.454 102.295 125.01C102.295 125.67 102.119 126.183 101.767 126.549C101.415 126.916 100.902 127.106 100.243 127.106C99.6127 127.106 99.1584 126.96 98.8506 126.652C98.5575 126.344 98.4109 125.919 98.4109 125.362C98.4109 124.703 98.5868 124.19 98.9385 123.823C99.2903 123.457 99.8032 123.266 100.463 123.266Z" fill="#274981"/>
<path d="M87.522 90.7022C87.6099 90.5263 87.6832 90.3358 87.7711 90.1599C87.8151 90.072 87.8151 89.9401 87.947 89.8961C88.1082 89.9548 88.1228 90.116 88.1815 90.2479C89.0315 92.285 89.8815 94.3221 90.7315 96.3445C91.9626 99.2902 93.2083 102.236 94.4247 105.182C94.5712 105.519 94.7471 105.621 95.1135 105.607C97.2678 105.592 99.4368 105.607 101.591 105.607H102.133C102.177 105.827 102.045 105.944 101.972 106.076C100.917 107.732 99.7446 109.3 98.4402 110.78C96.8135 112.627 95.0109 114.283 93.0177 115.734C92.5634 116.071 92.0798 116.378 91.6255 116.701C91.435 116.847 91.2738 116.862 91.0539 116.73C89.8375 116.027 88.6651 115.25 87.5366 114.429V90.7169L87.522 90.7022Z" fill="#23BAAF"/>
<path d="M87.522 74.0537C81.4986 74.0537 75.5632 74.8011 69.9648 76.1934V76.8089C70.0088 77.8494 70.0674 78.8753 70.126 79.9158C70.17 80.6486 70.214 81.3814 70.3166 82.0995C70.4631 83.1107 70.595 84.1219 70.7562 85.1185C70.9907 86.5547 71.2838 87.9616 71.6062 89.3832C72.1485 91.6988 72.8666 93.9557 73.7313 96.1833C73.9071 96.6376 74.0683 97.1066 74.3175 97.5316C74.5373 97.4144 74.5666 97.2092 74.6399 97.0333C75.827 94.3221 76.9994 91.6255 78.1865 88.9142C79.3296 86.3056 80.4581 83.6969 81.6012 81.1029C82.2167 79.696 82.8469 78.3037 83.4331 76.8822C83.609 76.4718 83.8142 76.2666 84.3125 76.2666C85.3823 76.2666 86.4522 76.2813 87.5073 76.2813V74.0537H87.522Z" fill="#23BAAF"/>
<path d="M87.522 114.415C87.053 114.063 86.584 113.711 86.1151 113.33C84.5762 112.084 83.14 110.736 81.8064 109.3C81.2641 108.714 80.7365 108.098 80.2236 107.468C80.0624 107.277 80.077 107.116 80.1796 106.911C81.1909 104.698 82.1874 102.485 83.184 100.272C84.6349 97.0773 86.0711 93.8824 87.522 90.6875V114.4V114.415Z" fill="#23BAAF"/>
<path d="M88.0203 85.4995C88.1229 85.5582 88.1522 85.6754 88.1961 85.778C88.416 86.2909 88.6211 86.8039 88.841 87.3315C90.1013 90.3651 91.3764 93.3988 92.6514 96.4325C93.6333 98.7773 94.6152 101.122 95.5825 103.467C95.6997 103.731 95.8023 103.921 96.154 103.921C98.1618 103.907 100.184 103.921 102.192 103.921C102.309 103.921 102.456 103.965 102.558 103.804C102.485 103.614 102.412 103.423 102.339 103.233C101.884 102.207 101.43 101.181 100.99 100.155C100.126 98.1764 99.2756 96.198 98.411 94.2195C97.004 90.9953 95.5825 87.7858 94.1755 84.5616C93.2816 82.5098 92.3876 80.4581 91.5083 78.4063C91.3617 78.0693 91.1858 77.9667 90.8195 77.9667C89.7203 77.9667 88.6212 77.9813 87.5367 77.9667V86.3496C87.6246 86.1444 87.7272 85.9246 87.8151 85.7194C87.8591 85.6314 87.8444 85.4849 88.0203 85.4995Z" fill="#154472"/>
<path d="M91.2738 122.226C89.9988 121.625 88.753 120.966 87.5367 120.262V126.667C87.6539 126.71 87.7858 126.754 87.903 126.798C88.0642 126.857 88.1961 126.886 88.372 126.828C90.1453 126.329 91.8307 125.685 93.3988 124.732C93.8824 124.439 94.3661 124.131 94.7618 123.677C94.5859 123.604 94.4393 123.545 94.2928 123.486C93.2816 123.091 92.2703 122.68 91.2884 122.211" fill="#154472"/>
<path d="M111.894 76.0615C104.244 73.3942 96.0221 71.9433 87.4487 71.9433C78.8753 71.9433 71.1812 73.3062 63.7363 75.8123L63.663 77.4537C63.663 78.9779 63.6337 80.5167 63.7509 82.0409C63.8389 83.0521 63.8828 84.078 63.9854 85.0892C64.088 86.0857 64.2492 87.0823 64.4104 88.0642C64.6449 89.4711 64.9527 90.8781 65.3337 92.2557C66.1837 95.3773 67.3268 98.3816 68.8363 101.254C69.7157 102.925 70.6976 104.552 71.7967 106.09C71.8407 106.149 71.87 106.237 72.0019 106.266C72.1485 106.134 72.2071 105.944 72.295 105.753C73.5554 102.983 74.7864 100.214 76.0468 97.4437C77.2485 94.7764 78.4649 92.1238 79.6667 89.4565C80.8977 86.7159 82.1434 83.9754 83.3745 81.2348C83.7995 80.2822 84.2392 79.3443 84.6495 78.3917C84.7961 78.0546 84.9719 77.9227 85.3823 77.9227C86.1004 77.9227 86.8185 77.9227 87.5366 77.9373V86.3202C86.6426 88.328 85.7487 90.3358 84.8547 92.3436C83.6383 95.0548 82.4365 97.7661 81.2201 100.492C80.1943 102.778 79.1684 105.079 78.1718 107.365C78.0399 107.673 77.8641 107.79 77.527 107.79C76.2813 107.776 75.0356 107.79 73.8045 107.79C73.6873 107.79 73.57 107.79 73.4674 107.79C73.3795 107.79 73.2916 107.79 73.2476 107.849C73.1743 107.952 73.2769 108.025 73.3355 108.098C74.5813 109.666 75.9149 111.146 77.3511 112.553C78.6994 113.872 80.1357 115.118 81.6305 116.276C83.2866 117.551 85.0159 118.738 86.8039 119.808C87.053 119.954 87.3168 120.101 87.5806 120.262V126.667C85.9245 126.066 84.3124 125.362 82.759 124.571C80.927 123.648 79.183 122.592 77.5123 121.405C75.5339 120.013 73.7019 118.459 72.0019 116.745C69.4079 114.136 67.2096 111.234 65.3484 108.083C64.1466 106.046 63.0914 103.921 62.1828 101.738C61.1716 99.3049 60.3216 96.8135 59.6474 94.2634C59.2957 92.9738 59.0172 91.6694 58.7241 90.3651C58.4017 88.8703 58.1965 87.3461 57.9327 85.8513C57.8155 85.2504 57.7715 84.6495 57.7276 84.0486C57.6103 82.671 57.4491 81.2934 57.3758 79.9012C57.3172 78.7287 57.3026 77.5417 57.3026 76.3692C57.3026 75.0795 57.3026 74.3907 57.3026 73.0864V72.4855C66.6234 68.6898 76.8235 66.6087 87.522 66.6087C98.2204 66.6087 108.421 68.7045 117.741 72.4855L117.712 72.9105C117.712 75.9882 117.829 79.0658 117.58 82.1434C117.448 83.8581 117.287 85.5728 117.023 87.2728C116.759 88.9582 116.466 90.6289 116.071 92.2996C115.44 94.9669 114.62 97.5756 113.594 100.14C112.846 102.016 111.996 103.833 111.044 105.621C109.813 107.908 108.406 110.091 106.823 112.172C105.255 114.224 103.54 116.144 101.635 117.888C100.917 118.547 100.17 119.163 99.4075 119.749C99.2023 119.91 98.9971 119.969 98.7333 119.94C96.7256 119.691 94.879 119.016 93.0617 118.196C93.0617 118.196 93.047 118.166 93.0177 118.152C93.0324 117.976 93.2083 117.917 93.3402 117.829C95.1281 116.613 96.7695 115.221 98.2937 113.711C100.199 111.806 101.84 109.71 103.306 107.468C105.343 104.317 106.94 100.961 108.201 97.4437C108.758 95.9195 109.227 94.366 109.652 92.7833C110.091 91.1419 110.472 89.4711 110.795 87.8004C111.132 86.0711 111.381 84.3124 111.571 82.5538C111.777 80.7952 111.894 79.0365 111.923 77.2632L111.952 76.0908" fill="#274981"/>
<path d="M87.522 76.2813C88.9875 76.2813 90.453 76.2813 91.9332 76.2666C92.3289 76.2666 92.5195 76.3985 92.666 76.7356C93.0617 77.6736 93.4867 78.6115 93.8971 79.5494C95.5971 83.4478 97.2971 87.3315 98.9971 91.2298C100.595 94.879 102.177 98.5282 103.76 102.163C103.804 102.28 103.833 102.412 103.995 102.47C104.17 102.324 104.229 102.104 104.332 101.914C105.284 99.9937 106.105 98.0152 106.794 95.9928C107.585 93.7066 108.23 91.3617 108.699 88.9875C108.919 87.8737 109.109 86.7599 109.285 85.6461C109.461 84.5469 109.578 83.4331 109.71 82.334C109.871 81.0003 109.945 79.6667 109.989 78.333V77.6442C102.925 75.3287 95.3773 74.0537 87.5366 74.0537V76.2813H87.522Z" fill="#23BAAF"/>
<path d="M117.639 67.5613C113.213 65.8173 108.655 64.4837 104.053 63.5311V58.6069C107.219 59.2517 110.355 60.0871 113.433 61.113V58.9586C109.49 57.6543 105.475 56.6577 101.43 55.9689V65.2018C106.94 66.1398 112.378 67.6493 117.639 69.7157V67.5613ZM99.6713 54.2396C104.903 55.0163 110.077 56.306 115.118 58.094V63.1354C112.055 62.0509 108.948 61.1423 105.797 60.4388V62.4906C109.813 63.3992 113.77 64.6156 117.639 66.1398V56.9069C110.971 54.2836 104.039 52.5689 97.0333 51.7628V62.4466C91.8013 61.8457 86.5254 61.7431 81.2788 62.1388V57.2146C84.459 56.9801 87.6392 56.9215 90.8341 57.0388V54.8844C86.7599 54.7232 82.6857 54.8551 78.6408 55.2948V64.5277C85.6314 63.7656 92.71 63.9121 99.6859 64.9527V54.2689L99.6713 54.2396ZM76.8675 54.0344C82.0848 53.3603 87.3608 53.1697 92.6074 53.5068V58.5483C89.4272 58.3578 86.2323 58.3431 83.0521 58.519V60.5707C87.1263 60.3509 91.2005 60.4242 95.26 60.8199V51.587C88.2547 50.9275 81.1909 51.162 74.2295 52.3051V62.9889C69.3933 63.7802 64.6156 64.9966 59.9405 66.6674V61.7431C62.6371 60.7905 65.363 59.9698 68.1036 59.3104V57.156C64.4837 58.0353 60.9078 59.1638 57.4052 60.5414V69.7743C63.707 67.2975 70.2433 65.6268 76.8529 64.7768V54.093M72.4562 61.875C68.807 62.5492 65.1872 63.4725 61.6406 64.6596V62.6078C64.3372 61.7138 67.0777 60.9664 69.8476 60.3509V55.3094C65.6268 56.2327 61.4647 57.4931 57.4052 59.0905V56.9362C62.3001 55.0163 67.3562 53.5801 72.4562 52.6275V61.8604V61.875Z" fill="#274981"/>
</g>
<defs>
<clipPath id="clip0_1_55">
<rect width="175" height="175" fill="white"/>
</clipPath>
</defs>
</svg>
