<svg id="reward-sports_and_competition-check_mark-tick-badge-award" data-name="reward-sports and competition-check mark-tick-badge-award" xmlns="http://www.w3.org/2000/svg" width="65.391" height="83.775" viewBox="0 0 65.391 83.775">
  <path id="Trazado_1574" data-name="Trazado 1574" d="M7.264,48.589a1.416,1.416,0,0,0,1.6,1.916c.092-.018,10.37-2.634,10.37-2.634l4.826,9.541a1.416,1.416,0,0,0,2.487-.055c.037-.074,3.629-7.976,6.907-15.178A35.23,35.23,0,0,1,14.264,33.19Z" transform="translate(-5.496 25.643)" fill="#fff"/>
  <path id="Trazado_1575" data-name="Trazado 1575" d="M45.763,33.19A35.23,35.23,0,0,1,26.57,42.179c3.3,7.239,6.889,15.16,6.907,15.178a1.409,1.409,0,0,0,2.487.055l4.826-9.541L51.161,50.5a1.4,1.4,0,0,0,1.6-1.916Z" transform="translate(10.859 25.643)" fill="#fff"/>
  <path id="Trazado_1576" data-name="Trazado 1576" d="M40.077,14.338,27.635,26.78a1.381,1.381,0,0,1-1.954,0l-5.2-5.2a2.3,2.3,0,1,0-3.259,3.259l7.81,7.81a2.309,2.309,0,0,0,3.259,0L43.337,17.6a2.3,2.3,0,1,0-3.259-3.259Z" transform="translate(2.418 9.203)" fill="#fff"/>
  <path id="Trazado_1577" data-name="Trazado 1577" d="M35.156,5.75A24.406,24.406,0,1,0,59.563,30.156,24.434,24.434,0,0,0,35.156,5.75ZM50.169,26.215,35.12,41.264a5.136,5.136,0,0,1-7.166,0l-7.81-7.81a5.111,5.111,0,0,1,0-7.166,5.19,5.19,0,0,1,7.166,0l4.227,4.226L43,19.049a5.067,5.067,0,0,1,7.166,7.166Z" transform="translate(-2.461 2.539)" fill="#fff"/>
  <path id="Trazado_1578" data-name="Trazado 1578" d="M71.641,33.945a32.7,32.7,0,1,0-32.7,32.7A32.732,32.732,0,0,0,71.641,33.945Zm-32.7,27.169A27.169,27.169,0,1,1,66.115,33.945,27.2,27.2,0,0,1,38.945,61.115Z" transform="translate(-6.25 -1.25)" fill="#fff"/>
</svg>
