<svg id="_001-rulers" data-name="001-rulers" xmlns="http://www.w3.org/2000/svg" width="63.422" height="63.422" viewBox="0 0 63.422 63.422">
  <path id="Trazado_1579" data-name="Trazado 1579" d="M30.185,50.863l10.7,10.7H33.51V58.768H31.649V61.56H27.3V58.768H25.443V61.56H21.1V58.768H19.238V61.56H14.894V58.768H13.032V61.56H8.688V58.768H6.826V61.56H1.862V56.6H4.654V54.734H1.862V50.39H4.654V48.528H1.862V44.184H4.654V42.323H1.862V37.979H4.654V36.117H1.862V31.773H4.654V29.911H1.862V22.54L28.868,49.546l1.316-1.316L20.153,38.2l1.8-4.935H32.537L38.7,50.2l1.749-.637,2.229,6.123,1.75-.637L42.2,48.925l1.749-.637L38.142,32.333l-1.75.636,5.171,14.206-1.75.636-9.7-26.645a7.73,7.73,0,0,0,1.651-.908l3.99,10.962,1.749-.637-4.262-11.71a7.755,7.755,0,0,0,1.106-8.024l-1.7.748a5.905,5.905,0,1,1-.838-1.366l1.44-1.179a7.745,7.745,0,0,0-3.212-2.326V0H24.45V6.728a7.749,7.749,0,0,0-3.208,12.145L15.795,33.84,0,18.045V63.422H45.376L31.5,49.546Zm-3.873-49h1.862v4.4a7.555,7.555,0,0,0-1.862,0Zm.931,19.858a7.817,7.817,0,0,0,1.065-.075L31.859,31.4H22.627l3.551-9.756A7.817,7.817,0,0,0,27.243,21.72ZM22.72,20.259a7.772,7.772,0,0,0,1.651.908L18.7,36.745l-1.453-1.452Zm0,0" fill="#fff"/>
  <path id="Trazado_1580" data-name="Trazado 1580" d="M80.069,310.768,60.117,290.816v19.951ZM61.979,295.311l13.6,13.6h-13.6Zm0,0" transform="translate(-52.67 -254.793)" fill="#fff"/>
  <path id="Trazado_1581" data-name="Trazado 1581" d="M386.754,0V5.523h1.862V1.862h11.79V51.445h1.862V0Zm0,0" transform="translate(-338.846)" fill="#fff"/>
  <path id="Trazado_1582" data-name="Trazado 1582" d="M400.406,113.792h-11.79v-9.363h5.275v-1.861h-5.275V98.913h2.792V97.051h-2.792V93.4h5.275V91.535h-5.275V87.881h2.792V86.019h-2.792V82.364h5.275V80.5h-5.275V76.848h2.792V74.986h-2.792V71.332h5.275V69.47h-5.275V65.816h2.792V63.954h-2.792V59.617h-1.862v56.037h15.514V105.539h-1.862Zm0,0" transform="translate(-338.846 -52.232)" fill="#fff"/>
  <path id="Trazado_1583" data-name="Trazado 1583" d="M52.6,105.207h1.862v1.861H52.6Zm0,0" transform="translate(-46.086 -92.175)" fill="#fff"/>
  <path id="Trazado_1584" data-name="Trazado 1584" d="M112.719,105.207h1.862v1.861h-1.862Zm0,0" transform="translate(-98.756 -92.175)" fill="#fff"/>
  <path id="Trazado_1585" data-name="Trazado 1585" d="M82.66,105.207h1.862v1.861H82.66Zm0,0" transform="translate(-72.421 -92.175)" fill="#fff"/>
  <path id="Trazado_1586" data-name="Trazado 1586" d="M342.168,105.207h1.862v1.861h-1.862Zm0,0" transform="translate(-299.783 -92.175)" fill="#fff"/>
  <path id="Trazado_1587" data-name="Trazado 1587" d="M312.109,105.207h1.862v1.861h-1.862Zm0,0" transform="translate(-273.448 -92.175)" fill="#fff"/>
  <path id="Trazado_1588" data-name="Trazado 1588" d="M466.91,112.719h1.862v1.862H466.91Zm0,0" transform="translate(-409.074 -98.756)" fill="#fff"/>
  <path id="Trazado_1589" data-name="Trazado 1589" d="M466.91,37.574h1.862v7.447H466.91Zm0,0" transform="translate(-409.074 -32.92)" fill="#fff"/>
  <path id="Trazado_1590" data-name="Trazado 1590" d="M189.078,88.641l1.763.6A2.176,2.176,0,0,1,191.6,88.2l-1.121-1.486A4.029,4.029,0,0,0,189.078,88.641Zm0,0" transform="translate(-165.657 -75.97)" fill="#fff"/>
  <path id="Trazado_1591" data-name="Trazado 1591" d="M219.514,86.181l.747,1.705a4.034,4.034,0,0,0-1.616-7.73q-.09,0-.18,0l.083,1.86.1,0a2.172,2.172,0,0,1,.868,4.163Zm0,0" transform="translate(-191.403 -70.227)" fill="#fff"/>
</svg>
