<svg xmlns="http://www.w3.org/2000/svg" width="62.518" height="66.685" viewBox="0 0 62.518 66.685">
  <g id="_050-study_time" data-name="050-study time" transform="translate(-16)">
    <path id="Trazado_1566" data-name="Trazado 1566" d="M155.8,17.648A17.648,17.648,0,1,0,138.148,35.3,17.668,17.668,0,0,0,155.8,17.648ZM138.148,31.389a13.741,13.741,0,1,1,13.741-13.741A13.756,13.756,0,0,1,138.148,31.389Z" transform="translate(-90.889 0)" fill="#fff"/>
    <path id="Trazado_1567" data-name="Trazado 1567" d="M217.531,61a1.954,1.954,0,0,0-1.954,1.954v4.86L213.665,67a1.954,1.954,0,1,0-1.529,3.6l4.63,1.97a1.955,1.955,0,0,0,2.718-1.8V62.954A1.954,1.954,0,0,0,217.531,61Z" transform="translate(-169.555 -53.055)" fill="#fff"/>
    <path id="Trazado_1568" data-name="Trazado 1568" d="M76.564,290.537a1.954,1.954,0,0,0,0-3.907H74.61V274.907h1.954a1.954,1.954,0,0,0,0-3.907h-50.8a9.762,9.762,0,0,0-6.453,17.092,7.876,7.876,0,0,0,4.565,14.3H76.564a1.954,1.954,0,1,0,0-3.907H74.61v-7.945Zm-50.8-15.629H70.7v3.907H25.768a1.954,1.954,0,1,0,0,3.907H70.7v3.907H25.768a5.861,5.861,0,1,1,0-11.722ZM23.88,298.482a3.972,3.972,0,0,1,0-7.945H70.7v7.945Z" transform="translate(0 -235.704)" fill="#fff"/>
  </g>
</svg>
