<svg xmlns="http://www.w3.org/2000/svg" width="54.719" height="57.647" viewBox="0 0 54.719 57.647">
  <g id="_008-education" data-name="008-education" transform="translate(-13 0)">
    <path id="Trazado_1542" data-name="Trazado 1542" d="M148.519,173.009v7.231a1.687,1.687,0,0,1-.982,1.534,26.122,26.122,0,0,1-21.906,0,1.687,1.687,0,0,1-.982-1.534v-7.231l9.594,5a5.086,5.086,0,0,0,4.682,0Z" transform="translate(-99.079 -153.529)" fill="#fff"/>
    <g id="Grupo_462" data-name="Grupo 462" transform="translate(53.381 15.668)">
      <path id="Trazado_1543" data-name="Trazado 1543" d="M375.028,139.159V144.6a1.689,1.689,0,0,1-3.378,0v-3.679Z" transform="translate(-371.65 -139.159)" fill="#fff"/>
    </g>
    <path id="Trazado_1544" data-name="Trazado 1544" d="M97.351,9.337,79.787.192a1.687,1.687,0,0,0-1.561,0L60.662,9.337a1.7,1.7,0,0,0,0,3l17.564,9.146a1.687,1.687,0,0,0,1.561,0l17.564-9.146a1.7,1.7,0,0,0,0-3Z" transform="translate(-41.501)" fill="#fff"/>
    <g id="Grupo_463" data-name="Grupo 463" transform="translate(13 31.852)">
      <path id="Trazado_1545" data-name="Trazado 1545" d="M338.927,286.756l-5.9,5.9a5.8,5.8,0,0,0-3.7-3.491l5.956-5.5a2.391,2.391,0,0,1,3.642,3.091Z" transform="translate(-293.713 -282.9)" fill="#fff"/>
      <path id="Trazado_1546" data-name="Trazado 1546" d="M67.1,309.915,56.381,321.633a21.885,21.885,0,0,1-9.369,6.054,28.846,28.846,0,0,1-22.234-1.811,19.811,19.811,0,0,0-9.077-2.214H14.689A1.689,1.689,0,0,1,13,321.973V314.4a1.689,1.689,0,0,1,1.689-1.689h4.332a2.3,2.3,0,0,0,1.537-.77,12.091,12.091,0,0,1,15.846.333,1.689,1.689,0,0,0,1.134.437h9.377a2.4,2.4,0,0,1,0,4.795H33.083a1.689,1.689,0,0,0-1.688,1.769,1.72,1.72,0,0,0,1.735,1.609H46.915A5.767,5.767,0,0,0,51.175,319l12.345-12.255a2.392,2.392,0,1,1,3.579,3.175Z" transform="translate(-13 -303.32)" fill="#fff"/>
    </g>
  </g>
</svg>
