<svg id="_046-worldwide" data-name="046-worldwide" xmlns="http://www.w3.org/2000/svg" width="95.373" height="95.373" viewBox="0 0 95.373 95.373">
  <path id="Trazado_1507" data-name="Trazado 1507" d="M53.769,72.346l2.507,2.507A35.278,35.278,0,0,1,74.854,56.276l-2.507-2.507A13.151,13.151,0,0,0,53.769,72.346Z" transform="translate(-40.97 -40.97)" fill="#fff"/>
  <circle id="Elipse_4" data-name="Elipse 4" cx="7.75" cy="7.75" r="7.75" transform="translate(0 0)" fill="#fff"/>
  <path id="Trazado_1508" data-name="Trazado 1508" d="M348.677,74.854l2.507-2.507a13.151,13.151,0,0,0-18.577-18.577L330.1,56.276a35.279,35.279,0,0,1,18.577,18.577Z" transform="translate(-268.611 -40.97)" fill="#fff"/>
  <circle id="Elipse_5" data-name="Elipse 5" cx="7.75" cy="7.75" r="7.75" transform="translate(79.873 0)" fill="#fff"/>
  <path id="Trazado_1509" data-name="Trazado 1509" d="M56.276,330.1l-2.507,2.507a13.151,13.151,0,0,0,18.577,18.577l2.507-2.507A35.262,35.262,0,0,1,56.277,330.1Z" transform="translate(-40.97 -268.611)" fill="#fff"/>
  <circle id="Elipse_6" data-name="Elipse 6" cx="7.75" cy="7.75" r="7.75" transform="translate(0 79.873)" fill="#fff"/>
  <path id="Trazado_1510" data-name="Trazado 1510" d="M351.185,332.607l-2.507-2.507A35.262,35.262,0,0,1,330.1,348.677l2.507,2.507a13.151,13.151,0,0,0,18.577-18.577Z" transform="translate(-268.611 -268.611)" fill="#fff"/>
  <circle id="Elipse_7" data-name="Elipse 7" cx="7.75" cy="7.75" r="7.75" transform="translate(79.873 79.873)" fill="#fff"/>
  <path id="Trazado_1511" data-name="Trazado 1511" d="M153.444,354.66a57.162,57.162,0,0,0-8.954,2.692,29.614,29.614,0,0,0,12.305,7.3,33.746,33.746,0,0,1-1.865-4.541A52.591,52.591,0,0,1,153.444,354.66Z" transform="translate(-117.575 -288.596)" fill="#fff"/>
  <path id="Trazado_1512" data-name="Trazado 1512" d="M222.21,348.35c.369,1.624.79,3.154,1.263,4.568,1.6,4.788,3.3,6.768,4.357,7.374a1.382,1.382,0,0,0,1.349,0c1.058-.607,2.754-2.587,4.357-7.374.473-1.414.894-2.943,1.263-4.568a56.742,56.742,0,0,0-12.589,0Z" transform="translate(-180.818 -283.176)" fill="#fff"/>
  <path id="Trazado_1513" data-name="Trazado 1513" d="M304.8,354.66a52.579,52.579,0,0,1-1.486,5.452,33.738,33.738,0,0,1-1.865,4.541,29.614,29.614,0,0,0,12.305-7.3A57.163,57.163,0,0,0,304.8,354.66Z" transform="translate(-245.297 -288.596)" fill="#fff"/>
  <path id="Trazado_1514" data-name="Trazado 1514" d="M97.76,271a29.391,29.391,0,0,0,4.957,13.771,62.423,62.423,0,0,1,11.722-3.692A91.277,91.277,0,0,1,113.621,271Z" transform="translate(-79.55 -220.519)" fill="#fff"/>
  <path id="Trazado_1515" data-name="Trazado 1515" d="M213.653,280.182a62.391,62.391,0,0,1,14.567,0,86.147,86.147,0,0,0,.743-9.182H212.91A86.155,86.155,0,0,0,213.653,280.182Z" transform="translate(-173.25 -220.519)" fill="#fff"/>
  <path id="Trazado_1516" data-name="Trazado 1516" d="M324.7,281.079a62.421,62.421,0,0,1,11.722,3.692A29.4,29.4,0,0,0,341.379,271H325.518A91.275,91.275,0,0,1,324.7,281.079Z" transform="translate(-264.216 -220.519)" fill="#fff"/>
  <path id="Trazado_1517" data-name="Trazado 1517" d="M153.444,113.684a52.593,52.593,0,0,1,1.486-5.452,33.743,33.743,0,0,1,1.865-4.541,29.614,29.614,0,0,0-12.305,7.3A57.165,57.165,0,0,0,153.444,113.684Z" transform="translate(-117.575 -84.375)" fill="#fff"/>
  <path id="Trazado_1518" data-name="Trazado 1518" d="M234.8,109.185c-.369-1.624-.79-3.154-1.263-4.567-1.6-4.788-3.3-6.768-4.357-7.374a1.382,1.382,0,0,0-1.349,0c-1.058.607-2.754,2.586-4.357,7.374-.473,1.414-.894,2.943-1.263,4.567a56.741,56.741,0,0,0,12.589,0Z" transform="translate(-180.817 -78.986)" fill="#fff"/>
  <path id="Trazado_1519" data-name="Trazado 1519" d="M304.8,113.684a57.165,57.165,0,0,0,8.954-2.692,29.614,29.614,0,0,0-12.305-7.3,33.739,33.739,0,0,1,1.865,4.541A52.577,52.577,0,0,1,304.8,113.684Z" transform="translate(-245.297 -84.375)" fill="#fff"/>
  <path id="Trazado_1520" data-name="Trazado 1520" d="M102.717,167.07a29.391,29.391,0,0,0-4.957,13.771h15.861a91.277,91.277,0,0,1,.818-10.079A62.423,62.423,0,0,1,102.717,167.07Z" transform="translate(-79.55 -135.949)" fill="#fff"/>
  <path id="Trazado_1521" data-name="Trazado 1521" d="M220.937,192.137a62.363,62.363,0,0,1-7.283-.427,86.159,86.159,0,0,0-.743,9.182h16.053a86.143,86.143,0,0,0-.743-9.182A62.362,62.362,0,0,1,220.937,192.137Z" transform="translate(-173.25 -155.999)" fill="#fff"/>
  <path id="Trazado_1522" data-name="Trazado 1522" d="M336.422,167.07a62.425,62.425,0,0,1-11.722,3.692,91.266,91.266,0,0,1,.818,10.079h15.861A29.391,29.391,0,0,0,336.422,167.07Z" transform="translate(-264.216 -135.949)" fill="#fff"/>
</svg>
